<svg width="666" height="436" viewBox="0 0 666 436" fill="none" xmlns="http://www.w3.org/2000/svg">
<g filter="url(#filter0_d_1_7517)">
<rect x="61.1562" y="57.0793" width="448.48" height="312.836" rx="12.2202" fill="white"/>
<rect x="105.149" y="101.072" width="48.8806" height="48.8806" rx="14.6642" fill="#008EFF"/>
<g clip-path="url(#clip0_1_7517)">
<path d="M118.591 114.514H140.587C140.912 114.514 141.222 114.643 141.452 114.872C141.681 115.101 141.809 115.412 141.809 115.736V135.288C141.809 135.612 141.681 135.923 141.452 136.152C141.222 136.381 140.912 136.51 140.587 136.51H118.591C118.267 136.51 117.956 136.381 117.727 136.152C117.498 135.923 117.369 135.612 117.369 135.288V115.736C117.369 115.412 117.498 115.101 117.727 114.872C117.956 114.643 118.267 114.514 118.591 114.514ZM139.365 124.29H119.813V134.066H139.365V124.29ZM139.365 121.846V116.958H119.813V121.846H139.365ZM132.033 129.178H136.921V131.622H132.033V129.178Z" fill="#FCFCFC"/>
</g>
<path d="M176.808 120.905L177.732 118.068H182.221L183.145 120.905H185.964L181.674 108.463H178.284L173.989 120.905H176.808ZM178.4 116.014L179.931 111.306H180.028L181.559 116.014H178.4ZM190.417 121.057C191.924 121.057 192.707 120.188 193.066 119.41H193.175V120.905H195.727V108.463H193.145V113.141H193.066C192.719 112.381 191.972 111.452 190.411 111.452C188.363 111.452 186.632 113.044 186.632 116.251C186.632 119.374 188.29 121.057 190.417 121.057ZM191.237 118.997C189.967 118.997 189.275 117.867 189.275 116.239C189.275 114.623 189.955 113.511 191.237 113.511C192.495 113.511 193.199 114.575 193.199 116.239C193.199 117.904 192.482 118.997 191.237 118.997ZM201.293 121.057C202.8 121.057 203.584 120.188 203.942 119.41H204.051V120.905H206.603V108.463H204.021V113.141H203.942C203.596 112.381 202.849 111.452 201.287 111.452C199.24 111.452 197.508 113.044 197.508 116.251C197.508 119.374 199.167 121.057 201.293 121.057ZM202.113 118.997C200.844 118.997 200.151 117.867 200.151 116.239C200.151 114.623 200.832 113.511 202.113 113.511C203.371 113.511 204.076 114.575 204.076 116.239C204.076 117.904 203.359 118.997 202.113 118.997ZM223.717 112.819C223.371 109.945 221.196 108.293 218.316 108.293C215.03 108.293 212.521 110.613 212.521 114.684C212.521 118.742 214.987 121.075 218.316 121.075C221.506 121.075 223.432 118.955 223.717 116.664L221.056 116.652C220.807 117.983 219.762 118.748 218.359 118.748C216.47 118.748 215.188 117.345 215.188 114.684C215.188 112.096 216.451 110.619 218.377 110.619C219.817 110.619 220.856 111.452 221.056 112.819H223.717ZM228.216 121.081C229.595 121.081 230.488 120.48 230.944 119.611H231.017V120.905H233.471V114.611C233.471 112.387 231.588 111.452 229.51 111.452C227.275 111.452 225.804 112.521 225.446 114.222L227.84 114.417C228.016 113.797 228.569 113.341 229.498 113.341C230.379 113.341 230.883 113.785 230.883 114.55V114.587C230.883 115.188 230.245 115.267 228.623 115.425C226.776 115.595 225.118 116.215 225.118 118.299C225.118 120.146 226.436 121.081 228.216 121.081ZM228.957 119.295C228.162 119.295 227.59 118.924 227.59 118.214C227.59 117.485 228.192 117.126 229.103 116.999C229.668 116.92 230.592 116.786 230.902 116.579V117.57C230.902 118.548 230.094 119.295 228.957 119.295ZM235.479 120.905H238.067V115.626C238.067 114.477 238.906 113.688 240.048 113.688C240.406 113.688 240.899 113.748 241.142 113.827V111.531C240.911 111.476 240.589 111.44 240.327 111.44C239.283 111.44 238.426 112.047 238.086 113.201H237.988V111.573H235.479V120.905ZM245.484 121.057C246.991 121.057 247.774 120.188 248.133 119.41H248.242V120.905H250.794V108.463H248.212V113.141H248.133C247.786 112.381 247.039 111.452 245.478 111.452C243.43 111.452 241.699 113.044 241.699 116.251C241.699 119.374 243.358 121.057 245.484 121.057ZM246.304 118.997C245.034 118.997 244.342 117.867 244.342 116.239C244.342 114.623 245.022 113.511 246.304 113.511C247.562 113.511 248.266 114.575 248.266 116.239C248.266 117.904 247.55 118.997 246.304 118.997Z" fill="#1E1E20"/>
<path d="M175.311 143.789L176.384 140.769H180.695L181.768 143.789H183.122L179.206 133.124H177.873L173.957 143.789H175.311ZM176.79 139.623L178.498 134.812H178.581L180.289 139.623H176.79ZM187.637 143.956C189.178 143.956 189.699 142.998 189.97 142.56H190.116V143.789H191.303V133.124H190.074V137.061H189.97C189.699 136.645 189.22 135.687 187.658 135.687C185.637 135.687 184.242 137.29 184.242 139.811C184.242 142.352 185.637 143.956 187.637 143.956ZM187.804 142.852C186.262 142.852 185.471 141.498 185.471 139.79C185.471 138.103 186.241 136.79 187.804 136.79C189.303 136.79 190.095 137.999 190.095 139.79C190.095 141.602 189.282 142.852 187.804 142.852ZM196.745 143.956C198.286 143.956 198.807 142.998 199.078 142.56H199.224V143.789H200.411V133.124H199.182V137.061H199.078C198.807 136.645 198.328 135.687 196.766 135.687C194.745 135.687 193.35 137.29 193.35 139.811C193.35 142.352 194.745 143.956 196.745 143.956ZM196.911 142.852C195.37 142.852 194.578 141.498 194.578 139.79C194.578 138.103 195.349 136.79 196.911 136.79C198.411 136.79 199.203 137.999 199.203 139.79C199.203 141.602 198.39 142.852 196.911 142.852ZM209.31 143.977C210.706 143.977 211.435 143.227 211.685 142.706H211.747V143.789H212.976V138.519C212.976 135.978 211.039 135.687 210.019 135.687C208.81 135.687 207.436 136.103 206.811 137.561L207.977 137.978C208.248 137.395 208.889 136.77 210.06 136.77C211.19 136.77 211.747 137.369 211.747 138.394V138.436C211.747 139.03 211.143 138.978 209.685 139.165C208.201 139.358 206.582 139.686 206.582 141.519C206.582 143.081 207.79 143.977 209.31 143.977ZM209.498 142.873C208.519 142.873 207.811 142.435 207.811 141.581C207.811 140.644 208.665 140.352 209.623 140.227C210.144 140.165 211.539 140.019 211.747 139.769V140.894C211.747 141.894 210.956 142.873 209.498 142.873ZM222.593 143.956C224.364 143.956 225.53 142.873 225.739 141.456H224.51C224.28 142.331 223.551 142.852 222.593 142.852C221.135 142.852 220.198 141.644 220.198 139.79C220.198 137.978 221.156 136.79 222.593 136.79C223.676 136.79 224.322 137.457 224.51 138.186H225.739C225.53 136.686 224.26 135.687 222.572 135.687C220.406 135.687 218.969 137.395 218.969 139.832C218.969 142.227 220.344 143.956 222.593 143.956ZM229.889 143.977C231.285 143.977 232.014 143.227 232.264 142.706H232.326V143.789H233.555V138.519C233.555 135.978 231.618 135.687 230.597 135.687C229.389 135.687 228.014 136.103 227.389 137.561L228.556 137.978C228.827 137.395 229.467 136.77 230.639 136.77C231.769 136.77 232.326 137.369 232.326 138.394V138.436C232.326 139.03 231.722 138.978 230.264 139.165C228.78 139.358 227.16 139.686 227.16 141.519C227.16 143.081 228.368 143.977 229.889 143.977ZM230.076 142.873C229.097 142.873 228.389 142.435 228.389 141.581C228.389 140.644 229.243 140.352 230.201 140.227C230.722 140.165 232.118 140.019 232.326 139.769V140.894C232.326 141.894 231.534 142.873 230.076 142.873ZM235.798 143.789H237.027V138.728C237.027 137.645 237.881 136.853 239.048 136.853C239.376 136.853 239.714 136.915 239.797 136.936V135.687C239.657 135.676 239.334 135.666 239.152 135.666C238.193 135.666 237.36 136.207 237.069 136.999H236.985V135.791H235.798V143.789ZM244.031 143.956C245.572 143.956 246.093 142.998 246.364 142.56H246.51V143.789H247.697V133.124H246.468V137.061H246.364C246.093 136.645 245.614 135.687 244.052 135.687C242.031 135.687 240.636 137.29 240.636 139.811C240.636 142.352 242.031 143.956 244.031 143.956ZM244.198 142.852C242.656 142.852 241.865 141.498 241.865 139.79C241.865 138.103 242.635 136.79 244.198 136.79C245.697 136.79 246.489 137.999 246.489 139.79C246.489 141.602 245.677 142.852 244.198 142.852ZM257.492 143.956C259.659 143.956 261.117 142.31 261.117 139.832C261.117 137.332 259.659 135.687 257.492 135.687C255.326 135.687 253.868 137.332 253.868 139.832C253.868 142.31 255.326 143.956 257.492 143.956ZM257.492 142.852C255.847 142.852 255.097 141.436 255.097 139.832C255.097 138.228 255.847 136.79 257.492 136.79C259.138 136.79 259.888 138.228 259.888 139.832C259.888 141.436 259.138 142.852 257.492 142.852ZM266.555 135.791H264.763V134.978C264.763 134.187 265.096 133.77 265.909 133.77C266.263 133.77 266.471 133.853 266.596 133.895L266.95 132.833C266.763 132.75 266.388 132.625 265.784 132.625C264.638 132.625 263.534 133.312 263.534 134.687V135.791H262.243V136.832H263.534V143.789H264.763V136.832H266.555V135.791ZM274.755 143.977C276.151 143.977 276.88 143.227 277.13 142.706H277.192V143.789H278.421V138.519C278.421 135.978 276.484 135.687 275.463 135.687C274.255 135.687 272.88 136.103 272.255 137.561L273.422 137.978C273.693 137.395 274.333 136.77 275.505 136.77C276.635 136.77 277.192 137.369 277.192 138.394V138.436C277.192 139.03 276.588 138.978 275.13 139.165C273.646 139.358 272.026 139.686 272.026 141.519C272.026 143.081 273.234 143.977 274.755 143.977ZM274.942 142.873C273.963 142.873 273.255 142.435 273.255 141.581C273.255 140.644 274.109 140.352 275.067 140.227C275.588 140.165 276.984 140.019 277.192 139.769V140.894C277.192 141.894 276.401 142.873 274.942 142.873ZM281.893 138.978C281.893 137.582 282.758 136.79 283.934 136.79C285.075 136.79 285.767 137.535 285.767 138.79V143.789H286.996V138.707C286.996 136.666 285.908 135.687 284.289 135.687C283.08 135.687 282.331 136.228 281.956 137.04H281.851V135.791H280.664V143.789H281.893V138.978ZM289.747 146.789C290.856 146.789 291.638 146.2 292.101 144.956L295.507 135.811L294.163 135.791L291.955 142.165H291.872L289.664 135.791H288.331L291.289 143.831L291.06 144.456C290.612 145.674 290.06 145.789 289.164 145.56L288.852 146.643C288.977 146.705 289.331 146.789 289.747 146.789ZM301.424 143.789H302.611V142.56H302.757C303.028 142.998 303.548 143.956 305.09 143.956C307.089 143.956 308.485 142.352 308.485 139.811C308.485 137.29 307.089 135.687 305.069 135.687C303.507 135.687 303.028 136.645 302.757 137.061H302.653V133.124H301.424V143.789ZM302.632 139.79C302.632 137.999 303.423 136.79 304.923 136.79C306.485 136.79 307.256 138.103 307.256 139.79C307.256 141.498 306.464 142.852 304.923 142.852C303.444 142.852 302.632 141.602 302.632 139.79ZM312.719 143.977C314.114 143.977 314.843 143.227 315.093 142.706H315.156V143.789H316.385V138.519C316.385 135.978 314.448 135.687 313.427 135.687C312.219 135.687 310.844 136.103 310.219 137.561L311.386 137.978C311.656 137.395 312.297 136.77 313.469 136.77C314.599 136.77 315.156 137.369 315.156 138.394V138.436C315.156 139.03 314.552 138.978 313.094 139.165C311.609 139.358 309.99 139.686 309.99 141.519C309.99 143.081 311.198 143.977 312.719 143.977ZM312.906 142.873C311.927 142.873 311.219 142.435 311.219 141.581C311.219 140.644 312.073 140.352 313.031 140.227C313.552 140.165 314.947 140.019 315.156 139.769V140.894C315.156 141.894 314.364 142.873 312.906 142.873ZM319.857 138.978C319.857 137.582 320.721 136.79 321.898 136.79C323.039 136.79 323.731 137.535 323.731 138.79V143.789H324.96V138.707C324.96 136.666 323.872 135.687 322.252 135.687C321.044 135.687 320.294 136.228 319.919 137.04H319.815V135.791H318.628V143.789H319.857V138.978ZM327.206 143.789H328.435V140.795L329.294 139.998L332.288 143.789H333.85L330.221 139.207L333.601 135.791H332.08L328.581 139.353H328.435V133.124H327.206V143.789Z" fill="#ACACB0" fill-opacity="0.8"/>
<path fill-rule="evenodd" clip-rule="evenodd" d="M450.98 115.431C445.412 115.431 440.898 119.944 440.898 125.512C440.898 131.08 445.412 135.594 450.98 135.594C456.548 135.594 461.062 131.08 461.062 125.512C461.062 119.944 456.548 115.431 450.98 115.431ZM439.065 125.512C439.065 118.932 444.4 113.598 450.98 113.598C457.56 113.598 462.895 118.932 462.895 125.512C462.895 132.093 457.56 137.427 450.98 137.427C444.4 137.427 439.065 132.093 439.065 125.512Z" fill="#ACACB0" fill-opacity="0.8"/>
<rect x="105.149" y="189.057" width="48.8806" height="48.8806" rx="14.6642" fill="#FABB18"/>
<g clip-path="url(#clip1_1_7517)">
<path d="M139.367 201.276C140.339 201.276 141.272 201.663 141.959 202.35C142.647 203.038 143.033 203.97 143.033 204.942V207.386H140.589V222.051C140.589 223.023 140.203 223.955 139.515 224.643C138.827 225.33 137.895 225.717 136.923 225.717H119.814C118.842 225.717 117.91 225.33 117.222 224.643C116.535 223.955 116.148 223.023 116.148 222.051V219.607H135.701V222.051C135.701 222.35 135.811 222.639 136.01 222.863C136.208 223.086 136.482 223.229 136.78 223.264L136.923 223.273C137.222 223.273 137.511 223.163 137.735 222.964C137.958 222.765 138.101 222.491 138.136 222.194L138.145 222.051V203.72H122.259C121.959 203.72 121.67 203.83 121.447 204.029C121.223 204.228 121.08 204.502 121.045 204.799L121.036 204.942V217.163H118.592V204.942C118.592 203.97 118.979 203.038 119.666 202.35C120.354 201.663 121.286 201.276 122.259 201.276H139.367Z" fill="#FCFCFC"/>
</g>
<path d="M176.808 208.89L177.732 206.053H182.221L183.145 208.89H185.964L181.674 196.448H178.284L173.989 208.89H176.808ZM178.4 203.999L179.931 199.291H180.028L181.559 203.999H178.4ZM190.417 209.042C191.924 209.042 192.707 208.173 193.066 207.395H193.175V208.89H195.727V196.448H193.145V201.126H193.066C192.719 200.366 191.972 199.437 190.411 199.437C188.363 199.437 186.632 201.028 186.632 204.236C186.632 207.359 188.29 209.042 190.417 209.042ZM191.237 206.982C189.967 206.982 189.275 205.852 189.275 204.224C189.275 202.608 189.955 201.496 191.237 201.496C192.495 201.496 193.199 202.559 193.199 204.224C193.199 205.889 192.482 206.982 191.237 206.982ZM201.293 209.042C202.8 209.042 203.584 208.173 203.942 207.395H204.051V208.89H206.603V196.448H204.021V201.126H203.942C203.596 200.366 202.849 199.437 201.287 199.437C199.24 199.437 197.508 201.028 197.508 204.236C197.508 207.359 199.167 209.042 201.293 209.042ZM202.113 206.982C200.844 206.982 200.151 205.852 200.151 204.224C200.151 202.608 200.832 201.496 202.113 201.496C203.371 201.496 204.076 202.559 204.076 204.224C204.076 205.889 203.359 206.982 202.113 206.982ZM223.717 200.804C223.371 197.93 221.196 196.277 218.316 196.277C215.03 196.277 212.521 198.598 212.521 202.669C212.521 206.727 214.987 209.06 218.316 209.06C221.506 209.06 223.432 206.94 223.717 204.649L221.056 204.637C220.807 205.968 219.762 206.733 218.359 206.733C216.47 206.733 215.188 205.33 215.188 202.669C215.188 200.081 216.451 198.604 218.377 198.604C219.817 198.604 220.856 199.437 221.056 200.804H223.717ZM225.555 208.89H228.143V203.61C228.143 202.462 228.982 201.672 230.124 201.672C230.482 201.672 230.974 201.733 231.217 201.812V199.516C230.987 199.461 230.665 199.424 230.403 199.424C229.358 199.424 228.502 200.032 228.162 201.186H228.064V199.558H225.555V208.89ZM234.437 212.389C236.363 212.389 237.384 211.405 237.913 209.898L241.54 199.57L238.8 199.558L236.849 206.411H236.752L234.82 199.558H232.098L235.446 209.157L235.294 209.552C234.954 210.427 234.304 210.469 233.392 210.19L232.809 212.122C233.18 212.28 233.781 212.389 234.437 212.389ZM242.864 212.389H245.452V207.395H245.531C245.889 208.173 246.673 209.042 248.18 209.042C250.306 209.042 251.965 207.359 251.965 204.236C251.965 201.028 250.233 199.437 248.186 199.437C246.625 199.437 245.877 200.366 245.531 201.126H245.416V199.558H242.864V212.389ZM245.397 204.224C245.397 202.559 246.102 201.496 247.36 201.496C248.642 201.496 249.322 202.608 249.322 204.224C249.322 205.852 248.629 206.982 247.36 206.982C246.114 206.982 245.397 205.889 245.397 204.224ZM258.654 199.558H256.898V197.322H254.31V199.558H253.034V201.502H254.31V206.363C254.298 208.191 255.543 209.096 257.421 209.017C258.089 208.993 258.563 208.86 258.824 208.774L258.417 206.849C258.289 206.873 258.016 206.934 257.773 206.934C257.256 206.934 256.898 206.739 256.898 206.022V201.502H258.654V199.558ZM264.456 209.072C267.287 209.072 269.049 207.134 269.049 204.26C269.049 201.369 267.287 199.437 264.456 199.437C261.625 199.437 259.863 201.369 259.863 204.26C259.863 207.134 261.625 209.072 264.456 209.072ZM264.468 207.067C263.162 207.067 262.493 205.87 262.493 204.242C262.493 202.614 263.162 201.411 264.468 201.411C265.75 201.411 266.418 202.614 266.418 204.242C266.418 205.87 265.75 207.067 264.468 207.067ZM277.541 208.89H280.104L282.468 200.755H282.565L284.934 208.89H287.498L291.058 196.448H288.185L286.125 205.111H286.016L283.75 196.448H281.289L279.017 205.093H278.914L276.854 196.448H273.98L277.541 208.89ZM294.076 209.066C295.455 209.066 296.348 208.465 296.804 207.596H296.877V208.89H299.331V202.596C299.331 200.372 297.448 199.437 295.37 199.437C293.135 199.437 291.664 200.506 291.306 202.207L293.7 202.401C293.876 201.782 294.429 201.326 295.358 201.326C296.239 201.326 296.743 201.77 296.743 202.535V202.572C296.743 203.173 296.105 203.252 294.483 203.41C292.636 203.58 290.978 204.2 290.978 206.284C290.978 208.13 292.296 209.066 294.076 209.066ZM294.817 207.28C294.022 207.28 293.45 206.909 293.45 206.199C293.45 205.469 294.052 205.111 294.963 204.983C295.528 204.904 296.452 204.771 296.761 204.564V205.555C296.761 206.533 295.953 207.28 294.817 207.28ZM303.927 196.448H301.339V208.89H303.927V196.448ZM308.589 196.448H306.001V208.89H308.589V196.448ZM314.915 209.072C317.223 209.072 318.779 207.948 319.143 206.217L316.749 206.059C316.488 206.77 315.82 207.14 314.957 207.14C313.663 207.14 312.843 206.284 312.843 204.892V204.886H319.198V204.175C319.198 201.004 317.278 199.437 314.811 199.437C312.065 199.437 310.285 201.387 310.285 204.267C310.285 207.225 312.041 209.072 314.915 209.072ZM312.843 203.282C312.898 202.219 313.706 201.369 314.854 201.369C315.978 201.369 316.756 202.171 316.762 203.282H312.843ZM325.85 199.558H324.095V197.322H321.506V199.558H320.231V201.502H321.506V206.363C321.494 208.191 322.74 209.096 324.617 209.017C325.285 208.993 325.759 208.86 326.02 208.774L325.613 206.849C325.486 206.873 325.212 206.934 324.969 206.934C324.453 206.934 324.095 206.739 324.095 206.022V201.502H325.85V199.558Z" fill="#1E1E20"/>
<path d="M183.455 224.442C183.06 222.255 181.31 220.963 179.164 220.963C176.436 220.963 174.457 223.067 174.457 226.442C174.457 229.816 176.436 231.92 179.164 231.92C181.31 231.92 183.06 230.629 183.455 228.441H182.164C181.851 229.92 180.581 230.712 179.164 230.712C177.227 230.712 175.707 229.212 175.707 226.442C175.707 223.671 177.227 222.172 179.164 222.172C180.581 222.172 181.851 222.963 182.164 224.442H183.455ZM188.625 231.941C190.791 231.941 192.249 230.295 192.249 227.817C192.249 225.317 190.791 223.671 188.625 223.671C186.459 223.671 185.001 225.317 185.001 227.817C185.001 230.295 186.459 231.941 188.625 231.941ZM188.625 230.837C186.98 230.837 186.23 229.42 186.23 227.817C186.23 226.213 186.98 224.775 188.625 224.775C190.271 224.775 191.02 226.213 191.02 227.817C191.02 229.42 190.271 230.837 188.625 230.837ZM195.354 226.962C195.354 225.567 196.219 224.775 197.396 224.775C198.536 224.775 199.229 225.52 199.229 226.775V231.774H200.458V226.692C200.458 224.65 199.369 223.671 197.75 223.671C196.542 223.671 195.792 224.213 195.417 225.025H195.313V223.776H194.125V231.774H195.354V226.962ZM203.932 226.962C203.932 225.567 204.797 224.775 205.974 224.775C207.114 224.775 207.807 225.52 207.807 226.775V231.774H209.036V226.692C209.036 224.65 207.947 223.671 206.328 223.671C205.12 223.671 204.37 224.213 203.995 225.025H203.891V223.776H202.703V231.774H203.932V226.962ZM214.635 231.941C216.26 231.941 217.447 231.128 217.822 229.92L216.635 229.587C216.322 230.42 215.598 230.837 214.635 230.837C213.193 230.837 212.198 229.905 212.141 228.191H217.947V227.671C217.947 224.692 216.176 223.671 214.51 223.671C212.344 223.671 210.906 225.379 210.906 227.837C210.906 230.295 212.323 231.941 214.635 231.941ZM212.141 227.129C212.224 225.885 213.104 224.775 214.51 224.775C215.843 224.775 216.697 225.775 216.697 227.129H212.141ZM223.066 231.941C224.836 231.941 226.003 230.858 226.211 229.441H224.982C224.753 230.316 224.024 230.837 223.066 230.837C221.608 230.837 220.67 229.629 220.67 227.775C220.67 225.963 221.629 224.775 223.066 224.775C224.149 224.775 224.795 225.442 224.982 226.171H226.211C226.003 224.671 224.732 223.671 223.045 223.671C220.879 223.671 219.441 225.379 219.441 227.817C219.441 230.212 220.816 231.941 223.066 231.941ZM231.486 223.776H229.778V221.859H228.549V223.776H227.341V224.817H228.549V229.816C228.549 231.212 229.674 231.878 230.716 231.878C231.174 231.878 231.465 231.795 231.632 231.733L231.382 230.629C231.278 230.649 231.111 230.691 230.841 230.691C230.299 230.691 229.778 230.524 229.778 229.483V224.817H231.486V223.776ZM238.251 234.774C239.36 234.774 240.141 234.185 240.605 232.941L244.01 223.796L242.667 223.776L240.459 230.149H240.375L238.167 223.776H236.834L239.792 231.816L239.563 232.441C239.115 233.659 238.563 233.774 237.668 233.545L237.355 234.628C237.48 234.69 237.834 234.774 238.251 234.774ZM248.599 231.941C250.766 231.941 252.224 230.295 252.224 227.817C252.224 225.317 250.766 223.671 248.599 223.671C246.433 223.671 244.975 225.317 244.975 227.817C244.975 230.295 246.433 231.941 248.599 231.941ZM248.599 230.837C246.954 230.837 246.204 229.42 246.204 227.817C246.204 226.213 246.954 224.775 248.599 224.775C250.245 224.775 250.995 226.213 250.995 227.817C250.995 229.42 250.245 230.837 248.599 230.837ZM259.14 228.504C259.14 230.004 257.995 230.691 257.078 230.691C256.058 230.691 255.329 229.941 255.329 228.775V223.776H254.1V228.858C254.1 230.899 255.183 231.878 256.683 231.878C257.891 231.878 258.682 231.233 259.057 230.42H259.14V231.774H260.369V223.776H259.14V228.504ZM262.62 231.774H263.849V226.713C263.849 225.629 264.703 224.838 265.87 224.838C266.198 224.838 266.536 224.9 266.62 224.921V223.671C266.479 223.661 266.156 223.651 265.974 223.651C265.016 223.651 264.183 224.192 263.891 224.984H263.808V223.776H262.62V231.774ZM275.45 231.941C277.221 231.941 278.387 230.858 278.596 229.441H277.367C277.137 230.316 276.408 230.837 275.45 230.837C273.992 230.837 273.055 229.629 273.055 227.775C273.055 225.963 274.013 224.775 275.45 224.775C276.533 224.775 277.179 225.442 277.367 226.171H278.596C278.387 224.671 277.117 223.671 275.429 223.671C273.263 223.671 271.826 225.379 271.826 227.817C271.826 230.212 273.201 231.941 275.45 231.941ZM280.392 231.774H281.621V226.713C281.621 225.629 282.475 224.838 283.642 224.838C283.97 224.838 284.308 224.9 284.391 224.921V223.671C284.251 223.661 283.928 223.651 283.746 223.651C282.788 223.651 281.954 224.192 281.663 224.984H281.579V223.776H280.392V231.774ZM286.883 234.774C287.992 234.774 288.773 234.185 289.237 232.941L292.643 223.796L291.299 223.776L289.091 230.149H289.008L286.8 223.776H285.467L288.425 231.816L288.195 232.441C287.748 233.659 287.196 233.774 286.3 233.545L285.987 234.628C286.112 234.69 286.467 234.774 286.883 234.774ZM294.269 234.774H295.498V230.545H295.602C295.873 230.983 296.393 231.941 297.935 231.941C299.934 231.941 301.33 230.337 301.33 227.796C301.33 225.275 299.934 223.671 297.914 223.671C296.352 223.671 295.873 224.63 295.602 225.046H295.456V223.776H294.269V234.774ZM295.477 227.775C295.477 225.983 296.268 224.775 297.768 224.775C299.33 224.775 300.101 226.088 300.101 227.775C300.101 229.483 299.309 230.837 297.768 230.837C296.289 230.837 295.477 229.587 295.477 227.775ZM306.683 223.776H304.975V221.859H303.746V223.776H302.538V224.817H303.746V229.816C303.746 231.212 304.871 231.878 305.913 231.878C306.371 231.878 306.662 231.795 306.829 231.733L306.579 230.629C306.475 230.649 306.308 230.691 306.037 230.691C305.496 230.691 304.975 230.524 304.975 229.483V224.817H306.683V223.776ZM311.695 231.941C313.862 231.941 315.32 230.295 315.32 227.817C315.32 225.317 313.862 223.671 311.695 223.671C309.529 223.671 308.071 225.317 308.071 227.817C308.071 230.295 309.529 231.941 311.695 231.941ZM311.695 230.837C310.05 230.837 309.3 229.42 309.3 227.817C309.3 226.213 310.05 224.775 311.695 224.775C313.341 224.775 314.091 226.213 314.091 227.817C314.091 229.42 313.341 230.837 311.695 230.837ZM323.132 231.774H324.34L326.09 225.629H326.215L327.965 231.774H329.173L331.61 223.776H330.319L328.59 229.879H328.506L326.819 223.776H325.507L323.799 229.899H323.715L321.987 223.776H320.695L323.132 231.774ZM335.588 231.962C336.984 231.962 337.713 231.212 337.963 230.691H338.026V231.774H339.255V226.504C339.255 223.963 337.317 223.671 336.297 223.671C335.089 223.671 333.714 224.088 333.089 225.546L334.255 225.963C334.526 225.379 335.167 224.755 336.338 224.755C337.468 224.755 338.026 225.353 338.026 226.379V226.421C338.026 227.015 337.421 226.962 335.963 227.15C334.479 227.343 332.86 227.671 332.86 229.504C332.86 231.066 334.068 231.962 335.588 231.962ZM335.776 230.858C334.797 230.858 334.089 230.42 334.089 229.566C334.089 228.629 334.943 228.337 335.901 228.212C336.422 228.15 337.817 228.004 338.026 227.754V228.879C338.026 229.879 337.234 230.858 335.776 230.858ZM342.727 221.109H341.498V231.774H342.727V221.109ZM346.206 221.109H344.978V231.774H346.206V221.109ZM351.811 231.941C353.436 231.941 354.623 231.128 354.998 229.92L353.811 229.587C353.498 230.42 352.774 230.837 351.811 230.837C350.369 230.837 349.374 229.905 349.317 228.191H355.123V227.671C355.123 224.692 353.352 223.671 351.686 223.671C349.52 223.671 348.082 225.379 348.082 227.837C348.082 230.295 349.499 231.941 351.811 231.941ZM349.317 227.129C349.4 225.885 350.28 224.775 351.686 224.775C353.019 224.775 353.873 225.775 353.873 227.129H349.317ZM360.471 223.776H358.763V221.859H357.534V223.776H356.326V224.817H357.534V229.816C357.534 231.212 358.659 231.878 359.7 231.878C360.159 231.878 360.45 231.795 360.617 231.733L360.367 230.629C360.263 230.649 360.096 230.691 359.825 230.691C359.284 230.691 358.763 230.524 358.763 229.483V224.817H360.471V223.776Z" fill="#ACACB0" fill-opacity="0.8"/>
<path fill-rule="evenodd" clip-rule="evenodd" d="M450.98 203.415C445.412 203.415 440.898 207.929 440.898 213.497C440.898 219.065 445.412 223.578 450.98 223.578C456.548 223.578 461.062 219.065 461.062 213.497C461.062 207.929 456.548 203.415 450.98 203.415ZM439.065 213.497C439.065 206.916 444.4 201.582 450.98 201.582C457.56 201.582 462.895 206.916 462.895 213.497C462.895 220.077 457.56 225.411 450.98 225.411C444.4 225.411 439.065 220.077 439.065 213.497Z" fill="#ACACB0" fill-opacity="0.8"/>
<rect x="85.5967" y="257.49" width="399.599" height="87.9851" rx="14.6642" fill="#F6F6F6"/>
<rect x="105.149" y="277.042" width="48.8806" height="48.8806" rx="14.6642" fill="#F23936"/>
<path fill-rule="evenodd" clip-rule="evenodd" d="M114.926 296.35C114.926 291.086 119.193 286.818 124.458 286.818H134.722C139.987 286.818 144.254 291.086 144.254 296.35V306.615C144.254 311.879 139.987 316.147 134.722 316.147H124.458C119.193 316.147 114.926 311.879 114.926 306.615V296.35ZM136.619 291.689C137.104 291.468 137.655 291.823 137.655 292.356V301.345C137.655 301.633 137.487 301.894 137.225 302.013L131.36 304.678C130.874 304.898 130.323 304.543 130.323 304.01V295.021C130.323 294.734 130.491 294.473 130.753 294.354L136.619 291.689ZM122.571 291.711C122.084 291.481 121.525 291.836 121.525 292.374V309.292C121.525 309.576 121.688 309.835 121.945 309.956L127.811 312.721C128.297 312.95 128.857 312.595 128.857 312.058V295.139C128.857 294.855 128.693 294.597 128.436 294.476L122.571 291.711Z" fill="#FCFCFC"/>
<path d="M176.808 296.875L177.732 294.038H182.221L183.145 296.875H185.964L181.674 284.432H178.284L173.989 296.875H176.808ZM178.4 291.984L179.931 287.276H180.028L181.559 291.984H178.4ZM190.417 297.027C191.924 297.027 192.707 296.158 193.066 295.38H193.175V296.875H195.727V284.432H193.145V289.11H193.066C192.719 288.351 191.972 287.421 190.411 287.421C188.363 287.421 186.632 289.013 186.632 292.221C186.632 295.344 188.29 297.027 190.417 297.027ZM191.237 294.967C189.967 294.967 189.275 293.837 189.275 292.209C189.275 290.593 189.955 289.481 191.237 289.481C192.495 289.481 193.199 290.544 193.199 292.209C193.199 293.874 192.482 294.967 191.237 294.967ZM201.293 297.027C202.8 297.027 203.584 296.158 203.942 295.38H204.051V296.875H206.603V284.432H204.021V289.11H203.942C203.596 288.351 202.849 287.421 201.287 287.421C199.24 287.421 197.508 289.013 197.508 292.221C197.508 295.344 199.167 297.027 201.293 297.027ZM202.113 294.967C200.844 294.967 200.151 293.837 200.151 292.209C200.151 290.593 200.832 289.481 202.113 289.481C203.371 289.481 204.076 290.544 204.076 292.209C204.076 293.874 203.359 294.967 202.113 294.967ZM220.425 284.432V292.288C220.425 293.709 219.428 294.736 217.897 294.736C216.372 294.736 215.37 293.709 215.37 292.288V284.432H212.739V292.513C212.739 295.234 214.793 297.051 217.897 297.051C220.99 297.051 223.055 295.234 223.055 292.513V284.432H220.425ZM227.759 291.48C227.765 290.277 228.482 289.572 229.527 289.572C230.566 289.572 231.192 290.253 231.186 291.395V296.875H233.774V290.933C233.774 288.758 232.498 287.421 230.554 287.421C229.169 287.421 228.166 288.102 227.747 289.189H227.638V287.543H225.171V296.875H227.759V291.48ZM235.813 296.875H238.402V287.543H235.813V296.875ZM237.114 286.34C237.885 286.34 238.517 285.751 238.517 285.028C238.517 284.311 237.885 283.722 237.114 283.722C236.348 283.722 235.716 284.311 235.716 285.028C235.716 285.751 236.348 286.34 237.114 286.34ZM240.475 300.374H243.063V295.38H243.142C243.5 296.158 244.284 297.027 245.791 297.027C247.917 297.027 249.576 295.344 249.576 292.221C249.576 289.013 247.844 287.421 245.797 287.421C244.235 287.421 243.488 288.351 243.142 289.11H243.026V287.543H240.475V300.374ZM243.008 292.209C243.008 290.544 243.713 289.481 244.971 289.481C246.252 289.481 246.933 290.593 246.933 292.209C246.933 293.837 246.24 294.967 244.971 294.967C243.725 294.967 243.008 293.874 243.008 292.209ZM253.962 297.051C255.341 297.051 256.234 296.449 256.69 295.581H256.763V296.875H259.217V290.581C259.217 288.357 257.334 287.421 255.256 287.421C253.02 287.421 251.55 288.491 251.192 290.192L253.585 290.386C253.762 289.767 254.314 289.311 255.244 289.311C256.125 289.311 256.629 289.754 256.629 290.52V290.556C256.629 291.158 255.991 291.237 254.369 291.395C252.522 291.565 250.864 292.185 250.864 294.268C250.864 296.115 252.182 297.051 253.962 297.051ZM254.703 295.265C253.907 295.265 253.336 294.894 253.336 294.183C253.336 293.454 253.938 293.096 254.849 292.968C255.414 292.889 256.338 292.756 256.647 292.549V293.539C256.647 294.518 255.839 295.265 254.703 295.265ZM262.489 300.374C264.415 300.374 265.435 299.39 265.964 297.883L269.591 287.555L266.851 287.543L264.901 294.396H264.804L262.872 287.543H260.15L263.497 297.142L263.345 297.537C263.005 298.412 262.355 298.454 261.444 298.175L260.861 300.107C261.231 300.265 261.833 300.374 262.489 300.374ZM277.068 296.875L277.992 294.038H282.481L283.405 296.875H286.224L281.935 284.432H278.545L274.249 296.875H277.068ZM278.66 291.984L280.191 287.276H280.288L281.819 291.984H278.66ZM291.455 297.057C293.939 297.057 295.501 295.599 295.622 293.454H293.18C293.028 294.451 292.372 295.01 291.485 295.01C290.276 295.01 289.492 293.995 289.492 292.209C289.492 290.447 290.282 289.439 291.485 289.439C292.433 289.439 293.04 290.064 293.18 290.994H295.622C295.513 288.837 293.879 287.421 291.443 287.421C288.611 287.421 286.862 289.384 286.862 292.245C286.862 295.083 288.581 297.057 291.455 297.057ZM301.496 297.057C303.981 297.057 305.542 295.599 305.663 293.454H303.221C303.069 294.451 302.413 295.01 301.526 295.01C300.317 295.01 299.533 293.995 299.533 292.209C299.533 290.447 300.323 289.439 301.526 289.439C302.474 289.439 303.081 290.064 303.221 290.994H305.663C305.554 288.837 303.92 287.421 301.484 287.421C298.652 287.421 296.903 289.384 296.903 292.245C296.903 295.083 298.622 297.057 301.496 297.057ZM311.537 297.057C314.368 297.057 316.13 295.119 316.13 292.245C316.13 289.353 314.368 287.421 311.537 287.421C308.706 287.421 306.944 289.353 306.944 292.245C306.944 295.119 308.706 297.057 311.537 297.057ZM311.549 295.052C310.243 295.052 309.574 293.855 309.574 292.227C309.574 290.599 310.243 289.396 311.549 289.396C312.831 289.396 313.499 290.599 313.499 292.227C313.499 293.855 312.831 295.052 311.549 295.052ZM323.797 292.901C323.803 294.153 322.946 294.809 322.017 294.809C321.039 294.809 320.407 294.123 320.401 293.023V287.543H317.813V293.485C317.819 295.666 319.095 296.996 320.972 296.996C322.375 296.996 323.384 296.273 323.803 295.18H323.9V296.875H326.385V287.543H323.797V292.901ZM331.043 291.48C331.049 290.277 331.766 289.572 332.811 289.572C333.85 289.572 334.476 290.253 334.47 291.395V296.875H337.058V290.933C337.058 288.758 335.782 287.421 333.838 287.421C332.453 287.421 331.45 288.102 331.031 289.189H330.922V287.543H328.455V296.875H331.043V291.48ZM344.061 287.543H342.305V285.307H339.717V287.543H338.442V289.487H339.717V294.347C339.705 296.176 340.951 297.081 342.828 297.002C343.496 296.978 343.97 296.844 344.231 296.759L343.824 294.833C343.697 294.858 343.423 294.918 343.18 294.918C342.664 294.918 342.305 294.724 342.305 294.007V289.487H344.061V287.543Z" fill="#1E1E20"/>
<path d="M174.873 319.759H176.165V314.989H181.851V319.759H183.143V309.094H181.851V313.843H176.165V309.094H174.873V319.759ZM188.811 319.926C190.978 319.926 192.436 318.28 192.436 315.801C192.436 313.302 190.978 311.656 188.811 311.656C186.645 311.656 185.187 313.302 185.187 315.801C185.187 318.28 186.645 319.926 188.811 319.926ZM188.811 318.822C187.166 318.822 186.416 317.405 186.416 315.801C186.416 314.197 187.166 312.76 188.811 312.76C190.457 312.76 191.207 314.197 191.207 315.801C191.207 317.405 190.457 318.822 188.811 318.822ZM195.541 309.094H194.312V319.759H195.541V309.094ZM200.812 319.926C202.353 319.926 202.874 318.968 203.145 318.53H203.291V319.759H204.478V309.094H203.249V313.031H203.145C202.874 312.614 202.395 311.656 200.833 311.656C198.812 311.656 197.417 313.26 197.417 315.781C197.417 318.322 198.812 319.926 200.812 319.926ZM200.978 318.822C199.437 318.822 198.645 317.468 198.645 315.76C198.645 314.072 199.416 312.76 200.978 312.76C202.478 312.76 203.27 313.968 203.27 315.76C203.27 317.572 202.457 318.822 200.978 318.822ZM213.377 319.947C214.773 319.947 215.502 319.197 215.752 318.676H215.814V319.759H217.043V314.489C217.043 311.948 215.106 311.656 214.086 311.656C212.877 311.656 211.503 312.073 210.878 313.531L212.044 313.948C212.315 313.364 212.956 312.739 214.127 312.739C215.257 312.739 215.814 313.338 215.814 314.364V314.406C215.814 314.999 215.21 314.947 213.752 315.135C212.268 315.327 210.649 315.656 210.649 317.489C210.649 319.051 211.857 319.947 213.377 319.947ZM213.565 318.843C212.586 318.843 211.878 318.405 211.878 317.551C211.878 316.614 212.732 316.322 213.69 316.197C214.211 316.135 215.606 315.989 215.814 315.739V316.864C215.814 317.864 215.023 318.843 213.565 318.843ZM220.515 309.094H219.287V319.759H220.515V309.094ZM223.995 309.094H222.766V319.759H223.995V309.094ZM230.371 322.759H231.6V318.53H231.704C231.974 318.968 232.495 319.926 234.037 319.926C236.036 319.926 237.432 318.322 237.432 315.781C237.432 313.26 236.036 311.656 234.016 311.656C232.454 311.656 231.974 312.614 231.704 313.031H231.558V311.76H230.371V322.759ZM231.579 315.76C231.579 313.968 232.37 312.76 233.87 312.76C235.432 312.76 236.203 314.072 236.203 315.76C236.203 317.468 235.411 318.822 233.87 318.822C232.391 318.822 231.579 317.572 231.579 315.76ZM241.66 319.947C243.056 319.947 243.785 319.197 244.035 318.676H244.097V319.759H245.326V314.489C245.326 311.948 243.389 311.656 242.369 311.656C241.16 311.656 239.786 312.073 239.161 313.531L240.327 313.948C240.598 313.364 241.239 312.739 242.41 312.739C243.54 312.739 244.097 313.338 244.097 314.364V314.406C244.097 314.999 243.493 314.947 242.035 315.135C240.551 315.327 238.932 315.656 238.932 317.489C238.932 319.051 240.14 319.947 241.66 319.947ZM241.848 318.843C240.869 318.843 240.161 318.405 240.161 317.551C240.161 316.614 241.015 316.322 241.973 316.197C242.494 316.135 243.889 315.989 244.097 315.739V316.864C244.097 317.864 243.306 318.843 241.848 318.843ZM248.075 322.759C249.184 322.759 249.965 322.17 250.428 320.926L253.834 311.781L252.491 311.76L250.283 318.134H250.199L247.991 311.76H246.658L249.616 319.801L249.387 320.426C248.939 321.644 248.387 321.759 247.491 321.53L247.179 322.613C247.304 322.675 247.658 322.759 248.075 322.759ZM255.46 319.759H256.689V314.76C256.689 313.588 257.543 312.76 258.501 312.76C259.433 312.76 260.084 313.369 260.084 314.281V319.759H261.334V314.552C261.334 313.521 261.98 312.76 263.105 312.76C263.979 312.76 264.729 313.224 264.729 314.406V319.759H265.958V314.406C265.958 312.526 264.948 311.656 263.521 311.656C262.376 311.656 261.537 312.182 261.126 313.01H261.042C260.647 312.156 259.949 311.656 258.897 311.656C257.856 311.656 257.085 312.156 256.752 313.01H256.647V311.76H255.46V319.759ZM271.559 319.926C273.184 319.926 274.371 319.113 274.746 317.905L273.559 317.572C273.246 318.405 272.522 318.822 271.559 318.822C270.116 318.822 269.122 317.89 269.065 316.176H274.871V315.656C274.871 312.677 273.1 311.656 271.434 311.656C269.268 311.656 267.83 313.364 267.83 315.822C267.83 318.28 269.247 319.926 271.559 319.926ZM269.065 315.114C269.148 313.869 270.028 312.76 271.434 312.76C272.767 312.76 273.621 313.76 273.621 315.114H269.065ZM277.969 314.947C277.969 313.552 278.834 312.76 280.011 312.76C281.151 312.76 281.844 313.505 281.844 314.76V319.759H283.073V314.677C283.073 312.635 281.984 311.656 280.365 311.656C279.157 311.656 278.407 312.198 278.032 313.01H277.928V311.76H276.74V319.759H277.969V314.947ZM288.797 311.76H287.089V309.844H285.86V311.76H284.652V312.802H285.86V317.801C285.86 319.197 286.985 319.863 288.026 319.863C288.484 319.863 288.776 319.78 288.943 319.717L288.693 318.613C288.589 318.634 288.422 318.676 288.151 318.676C287.61 318.676 287.089 318.509 287.089 317.468V312.802H288.797V311.76ZM296.168 313.552C295.783 312.417 294.918 311.656 293.335 311.656C291.648 311.656 290.398 312.614 290.398 313.968C290.398 315.072 291.054 315.812 292.523 316.155L293.856 316.468C294.663 316.655 295.043 317.041 295.043 317.593C295.043 318.28 294.314 318.843 293.169 318.843C292.164 318.843 291.533 318.41 291.315 317.551L290.148 317.843C290.435 319.202 291.554 319.926 293.189 319.926C295.048 319.926 296.314 318.91 296.314 317.53C296.314 316.416 295.616 315.713 294.189 315.364L293.002 315.072C292.054 314.838 291.627 314.52 291.627 313.906C291.627 313.218 292.356 312.719 293.335 312.719C294.408 312.719 294.851 313.312 295.064 313.864L296.168 313.552ZM308.829 311.76H307.496L305.288 318.134H305.204L302.996 311.76H301.663L304.621 319.759H305.871L308.829 311.76ZM310.451 319.759H311.68V311.76H310.451V319.759ZM311.076 310.427C311.555 310.427 311.951 310.052 311.951 309.594C311.951 309.136 311.555 308.761 311.076 308.761C310.597 308.761 310.201 309.136 310.201 309.594C310.201 310.052 310.597 310.427 311.076 310.427ZM316.284 319.947C317.68 319.947 318.409 319.197 318.659 318.676H318.722V319.759H319.951V314.489C319.951 311.948 318.013 311.656 316.993 311.656C315.785 311.656 314.41 312.073 313.785 313.531L314.951 313.948C315.222 313.364 315.863 312.739 317.034 312.739C318.164 312.739 318.722 313.338 318.722 314.364V314.406C318.722 314.999 318.117 314.947 316.659 315.135C315.175 315.327 313.556 315.656 313.556 317.489C313.556 319.051 314.764 319.947 316.284 319.947ZM316.472 318.843C315.493 318.843 314.785 318.405 314.785 317.551C314.785 316.614 315.639 316.322 316.597 316.197C317.118 316.135 318.513 315.989 318.722 315.739V316.864C318.722 317.864 317.93 318.843 316.472 318.843ZM329.796 311.76H328.088V309.844H326.859V311.76H325.651V312.802H326.859V317.801C326.859 319.197 327.984 319.863 329.026 319.863C329.484 319.863 329.776 319.78 329.942 319.717L329.692 318.613C329.588 318.634 329.422 318.676 329.151 318.676C328.609 318.676 328.088 318.509 328.088 317.468V312.802H329.796V311.76ZM333.046 314.947C333.046 313.552 333.936 312.76 335.15 312.76C336.306 312.76 337.004 313.489 337.004 314.76V319.759H338.233V314.677C338.233 312.62 337.139 311.656 335.504 311.656C334.244 311.656 333.525 312.182 333.15 313.01H333.046V309.094H331.817V319.759H333.046V314.947ZM343.834 319.926C345.459 319.926 346.646 319.113 347.021 317.905L345.834 317.572C345.522 318.405 344.798 318.822 343.834 318.822C342.392 318.822 341.397 317.89 341.34 316.176H347.146V315.656C347.146 312.677 345.376 311.656 343.709 311.656C341.543 311.656 340.106 313.364 340.106 315.822C340.106 318.28 341.522 319.926 343.834 319.926ZM341.34 315.114C341.423 313.869 342.303 312.76 343.709 312.76C345.043 312.76 345.897 313.76 345.897 315.114H341.34ZM355.494 319.947C356.89 319.947 357.619 319.197 357.869 318.676H357.931V319.759H359.16V314.489C359.16 311.948 357.223 311.656 356.202 311.656C354.994 311.656 353.619 312.073 352.994 313.531L354.161 313.948C354.432 313.364 355.072 312.739 356.244 312.739C357.374 312.739 357.931 313.338 357.931 314.364V314.406C357.931 314.999 357.327 314.947 355.869 315.135C354.385 315.327 352.765 315.656 352.765 317.489C352.765 319.051 353.973 319.947 355.494 319.947ZM355.681 318.843C354.702 318.843 353.994 318.405 353.994 317.551C353.994 316.614 354.848 316.322 355.806 316.197C356.327 316.135 357.723 315.989 357.931 315.739V316.864C357.931 317.864 357.14 318.843 355.681 318.843ZM361.403 322.759H362.632V318.53H362.736C363.007 318.968 363.528 319.926 365.069 319.926C367.069 319.926 368.464 318.322 368.464 315.781C368.464 313.26 367.069 311.656 365.048 311.656C363.486 311.656 363.007 312.614 362.736 313.031H362.59V311.76H361.403V322.759ZM362.611 315.76C362.611 313.968 363.403 312.76 364.903 312.76C366.465 312.76 367.235 314.072 367.235 315.76C367.235 317.468 366.444 318.822 364.903 318.822C363.424 318.822 362.611 317.572 362.611 315.76ZM370.339 322.759H371.568V318.53H371.672C371.943 318.968 372.464 319.926 374.005 319.926C376.005 319.926 377.4 318.322 377.4 315.781C377.4 313.26 376.005 311.656 373.984 311.656C372.422 311.656 371.943 312.614 371.672 313.031H371.526V311.76H370.339V322.759ZM371.547 315.76C371.547 313.968 372.339 312.76 373.839 312.76C375.401 312.76 376.171 314.072 376.171 315.76C376.171 317.468 375.38 318.822 373.839 318.822C372.36 318.822 371.547 317.572 371.547 315.76Z" fill="#ACACB0" fill-opacity="0.8"/>
<g clip-path="url(#clip2_1_7517)">
<path d="M450.98 313.703C444.231 313.703 438.76 308.232 438.76 301.482C438.76 294.733 444.231 289.262 450.98 289.262C457.729 289.262 463.2 294.733 463.2 301.482C463.2 308.232 457.729 313.703 450.98 313.703ZM449.762 306.37L458.401 297.73L456.673 296.002L449.762 302.915L446.304 299.457L444.577 301.185L449.762 306.37Z" fill="#14B082"/>
</g>
</g>
<g filter="url(#filter1_d_1_7517)">
<rect x="399.636" y="86.4241" width="216.205" height="102" rx="8.71795" fill="white"/>
<path d="M425.505 163.938H424.43C424.366 163.629 424.255 163.357 424.096 163.123C423.94 162.889 423.749 162.693 423.524 162.534C423.302 162.372 423.054 162.251 422.783 162.17C422.511 162.089 422.228 162.048 421.933 162.048C421.396 162.048 420.909 162.184 420.473 162.456C420.039 162.728 419.694 163.128 419.437 163.656C419.183 164.185 419.055 164.834 419.055 165.603C419.055 166.371 419.183 167.02 419.437 167.549C419.694 168.077 420.039 168.478 420.473 168.749C420.909 169.021 421.396 169.157 421.933 169.157C422.228 169.157 422.511 169.116 422.783 169.035C423.054 168.954 423.302 168.834 423.524 168.675C423.749 168.514 423.94 168.316 424.096 168.082C424.255 167.845 424.366 167.573 424.43 167.267H425.505C425.424 167.721 425.276 168.126 425.063 168.485C424.849 168.843 424.583 169.148 424.265 169.399C423.947 169.648 423.59 169.837 423.195 169.967C422.802 170.097 422.381 170.162 421.933 170.162C421.176 170.162 420.503 169.977 419.914 169.607C419.324 169.237 418.86 168.712 418.522 168.03C418.184 167.348 418.015 166.539 418.015 165.603C418.015 164.666 418.184 163.857 418.522 163.175C418.86 162.493 419.324 161.968 419.914 161.598C420.503 161.228 421.176 161.043 421.933 161.043C422.381 161.043 422.802 161.108 423.195 161.238C423.59 161.368 423.947 161.559 424.265 161.81C424.583 162.059 424.849 162.362 425.063 162.72C425.276 163.076 425.424 163.482 425.505 163.938ZM429.808 170.179C429.207 170.179 428.679 170.036 428.226 169.75C427.775 169.464 427.422 169.064 427.168 168.55C426.917 168.035 426.791 167.434 426.791 166.747C426.791 166.053 426.917 165.448 427.168 164.931C427.422 164.414 427.775 164.012 428.226 163.726C428.679 163.44 429.207 163.297 429.808 163.297C430.409 163.297 430.934 163.44 431.385 163.726C431.839 164.012 432.191 164.414 432.443 164.931C432.697 165.448 432.824 166.053 432.824 166.747C432.824 167.434 432.697 168.035 432.443 168.55C432.191 169.064 431.839 169.464 431.385 169.75C430.934 170.036 430.409 170.179 429.808 170.179ZM429.808 169.261C430.264 169.261 430.64 169.144 430.934 168.91C431.229 168.675 431.447 168.368 431.589 167.986C431.73 167.605 431.801 167.192 431.801 166.747C431.801 166.302 431.73 165.887 431.589 165.503C431.447 165.119 431.229 164.808 430.934 164.571C430.64 164.334 430.264 164.216 429.808 164.216C429.351 164.216 428.975 164.334 428.681 164.571C428.386 164.808 428.168 165.119 428.026 165.503C427.885 165.887 427.814 166.302 427.814 166.747C427.814 167.192 427.885 167.605 428.026 167.986C428.168 168.368 428.386 168.675 428.681 168.91C428.975 169.144 429.351 169.261 429.808 169.261ZM434.386 170.041V163.383H435.374V164.424H435.46C435.599 164.068 435.823 163.792 436.132 163.596C436.441 163.396 436.813 163.297 437.246 163.297C437.685 163.297 438.051 163.396 438.343 163.596C438.637 163.792 438.867 164.068 439.032 164.424H439.101C439.272 164.08 439.527 163.807 439.868 163.604C440.209 163.399 440.618 163.297 441.095 163.297C441.69 163.297 442.177 163.483 442.556 163.856C442.934 164.226 443.123 164.802 443.123 165.585V170.041H442.1V165.585C442.1 165.094 441.966 164.743 441.697 164.532C441.429 164.321 441.112 164.216 440.748 164.216C440.28 164.216 439.917 164.357 439.66 164.64C439.403 164.921 439.275 165.276 439.275 165.707V170.041H438.234V165.481C438.234 165.103 438.112 164.798 437.866 164.567C437.62 164.333 437.304 164.216 436.917 164.216C436.651 164.216 436.402 164.286 436.171 164.428C435.943 164.57 435.758 164.766 435.616 165.017C435.478 165.266 435.408 165.553 435.408 165.88V170.041H434.386ZM444.994 172.537V163.383H445.982V164.441H446.103C446.178 164.325 446.282 164.178 446.415 163.999C446.551 163.817 446.745 163.655 446.996 163.513C447.25 163.369 447.594 163.297 448.027 163.297C448.588 163.297 449.082 163.437 449.51 163.717C449.937 163.997 450.271 164.395 450.511 164.909C450.751 165.423 450.871 166.03 450.871 166.729C450.871 167.434 450.751 168.046 450.511 168.563C450.271 169.077 449.939 169.476 449.514 169.759C449.089 170.039 448.6 170.179 448.045 170.179C447.617 170.179 447.275 170.109 447.018 169.967C446.76 169.823 446.563 169.659 446.424 169.477C446.285 169.292 446.178 169.139 446.103 169.018H446.016V172.537H444.994ZM445.999 166.712C445.999 167.215 446.073 167.658 446.22 168.043C446.367 168.424 446.583 168.723 446.866 168.94C447.149 169.154 447.496 169.261 447.906 169.261C448.334 169.261 448.691 169.148 448.977 168.923C449.266 168.694 449.482 168.388 449.627 168.004C449.774 167.617 449.848 167.186 449.848 166.712C449.848 166.244 449.776 165.822 449.631 165.447C449.49 165.068 449.274 164.769 448.985 164.549C448.699 164.327 448.34 164.216 447.906 164.216C447.49 164.216 447.14 164.321 446.857 164.532C446.574 164.74 446.36 165.032 446.216 165.408C446.071 165.78 445.999 166.215 445.999 166.712ZM454.39 170.197C453.968 170.197 453.585 170.117 453.242 169.958C452.898 169.797 452.625 169.564 452.422 169.261C452.22 168.954 452.119 168.584 452.119 168.151C452.119 167.77 452.194 167.46 452.344 167.224C452.495 166.984 452.695 166.796 452.947 166.66C453.198 166.524 453.476 166.423 453.779 166.357C454.085 166.287 454.393 166.232 454.702 166.192C455.107 166.14 455.435 166.101 455.686 166.075C455.94 166.046 456.125 165.998 456.241 165.932C456.359 165.865 456.419 165.75 456.419 165.585V165.551C456.419 165.123 456.301 164.791 456.067 164.554C455.836 164.317 455.485 164.198 455.014 164.198C454.526 164.198 454.143 164.305 453.866 164.519C453.588 164.733 453.393 164.961 453.281 165.204L452.31 164.857C452.483 164.453 452.714 164.138 453.003 163.912C453.295 163.684 453.613 163.525 453.957 163.435C454.303 163.343 454.644 163.297 454.98 163.297C455.193 163.297 455.439 163.323 455.716 163.375C455.997 163.424 456.267 163.526 456.527 163.682C456.79 163.839 457.008 164.074 457.181 164.389C457.355 164.704 457.441 165.126 457.441 165.655V170.041H456.419V169.139H456.366C456.297 169.284 456.182 169.438 456.02 169.603C455.858 169.768 455.643 169.908 455.374 170.023C455.105 170.139 454.777 170.197 454.39 170.197ZM454.546 169.278C454.951 169.278 455.292 169.198 455.569 169.04C455.849 168.881 456.06 168.675 456.202 168.424C456.346 168.173 456.419 167.908 456.419 167.631V166.695C456.375 166.747 456.28 166.794 456.132 166.838C455.988 166.878 455.82 166.914 455.63 166.946C455.442 166.975 455.258 167.001 455.079 167.024C454.903 167.044 454.76 167.062 454.65 167.076C454.384 167.111 454.136 167.167 453.905 167.245C453.676 167.32 453.491 167.434 453.35 167.588C453.211 167.738 453.142 167.943 453.142 168.203C453.142 168.558 453.273 168.827 453.536 169.009C453.802 169.188 454.139 169.278 454.546 169.278ZM459.308 170.041V163.383H460.297V164.389H460.366C460.487 164.06 460.707 163.792 461.025 163.587C461.343 163.382 461.701 163.279 462.1 163.279C462.175 163.279 462.269 163.281 462.381 163.284C462.494 163.287 462.579 163.291 462.637 163.297V164.337C462.602 164.328 462.523 164.315 462.399 164.298C462.277 164.278 462.149 164.268 462.013 164.268C461.689 164.268 461.4 164.336 461.146 164.471C460.895 164.604 460.695 164.789 460.548 165.026C460.403 165.26 460.331 165.527 460.331 165.828V170.041H459.308ZM466.438 170.179C465.797 170.179 465.243 170.038 464.778 169.755C464.316 169.469 463.959 169.07 463.708 168.558C463.459 168.044 463.335 167.446 463.335 166.764C463.335 166.082 463.459 165.481 463.708 164.961C463.959 164.438 464.309 164.031 464.756 163.739C465.207 163.444 465.733 163.297 466.334 163.297C466.681 163.297 467.023 163.355 467.361 163.47C467.699 163.586 468.007 163.774 468.284 164.034C468.562 164.291 468.783 164.632 468.948 165.056C469.112 165.481 469.195 166.004 469.195 166.625V167.059H464.063V166.175H468.154C468.154 165.799 468.079 165.464 467.929 165.169C467.782 164.874 467.571 164.642 467.296 164.471C467.025 164.301 466.704 164.216 466.334 164.216C465.927 164.216 465.574 164.317 465.277 164.519C464.982 164.718 464.755 164.978 464.596 165.299C464.437 165.62 464.358 165.964 464.358 166.331V166.92C464.358 167.423 464.444 167.849 464.618 168.199C464.794 168.545 465.038 168.81 465.35 168.992C465.662 169.171 466.025 169.261 466.438 169.261C466.707 169.261 466.95 169.223 467.166 169.148C467.386 169.07 467.575 168.954 467.734 168.801C467.893 168.645 468.016 168.452 468.102 168.22L469.091 168.498C468.987 168.833 468.812 169.128 468.566 169.382C468.321 169.633 468.017 169.83 467.656 169.971C467.295 170.11 466.889 170.179 466.438 170.179ZM473.264 170.179C472.71 170.179 472.22 170.039 471.795 169.759C471.37 169.476 471.038 169.077 470.798 168.563C470.558 168.046 470.439 167.434 470.439 166.729C470.439 166.03 470.558 165.423 470.798 164.909C471.038 164.395 471.372 163.997 471.8 163.717C472.227 163.437 472.721 163.297 473.282 163.297C473.715 163.297 474.058 163.369 474.309 163.513C474.563 163.655 474.757 163.817 474.89 163.999C475.026 164.178 475.131 164.325 475.206 164.441H475.293V161.164H476.316V170.041H475.328V169.018H475.206C475.131 169.139 475.024 169.292 474.885 169.477C474.747 169.659 474.549 169.823 474.292 169.967C474.035 170.109 473.692 170.179 473.264 170.179ZM473.403 169.261C473.813 169.261 474.16 169.154 474.443 168.94C474.727 168.723 474.942 168.424 475.089 168.043C475.237 167.658 475.31 167.215 475.31 166.712C475.31 166.215 475.238 165.78 475.094 165.408C474.949 165.032 474.735 164.74 474.452 164.532C474.169 164.321 473.819 164.216 473.403 164.216C472.97 164.216 472.609 164.327 472.32 164.549C472.034 164.769 471.818 165.068 471.674 165.447C471.532 165.822 471.461 166.244 471.461 166.712C471.461 167.186 471.534 167.617 471.678 168.004C471.826 168.388 472.042 168.694 472.328 168.923C472.617 169.148 472.976 169.261 473.403 169.261ZM484.659 163.383V164.25H481.209V163.383H484.659ZM482.215 161.788H483.238V168.134C483.238 168.423 483.279 168.639 483.363 168.784C483.45 168.925 483.56 169.021 483.693 169.07C483.828 169.116 483.971 169.139 484.122 169.139C484.234 169.139 484.327 169.133 484.399 169.122C484.471 169.107 484.529 169.096 484.572 169.087L484.78 170.006C484.711 170.032 484.614 170.058 484.49 170.084C484.366 170.113 484.208 170.127 484.018 170.127C483.729 170.127 483.446 170.065 483.168 169.941C482.894 169.817 482.665 169.628 482.483 169.373C482.304 169.119 482.215 168.798 482.215 168.411V161.788ZM488.831 170.179C488.23 170.179 487.702 170.036 487.249 169.75C486.798 169.464 486.446 169.064 486.191 168.55C485.94 168.035 485.814 167.434 485.814 166.747C485.814 166.053 485.94 165.448 486.191 164.931C486.446 164.414 486.798 164.012 487.249 163.726C487.702 163.44 488.23 163.297 488.831 163.297C489.432 163.297 489.958 163.44 490.408 163.726C490.862 164.012 491.215 164.414 491.466 164.931C491.72 165.448 491.847 166.053 491.847 166.747C491.847 167.434 491.72 168.035 491.466 168.55C491.215 169.064 490.862 169.464 490.408 169.75C489.958 170.036 489.432 170.179 488.831 170.179ZM488.831 169.261C489.287 169.261 489.663 169.144 489.958 168.91C490.252 168.675 490.471 168.368 490.612 167.986C490.754 167.605 490.825 167.192 490.825 166.747C490.825 166.302 490.754 165.887 490.612 165.503C490.471 165.119 490.252 164.808 489.958 164.571C489.663 164.334 489.287 164.216 488.831 164.216C488.374 164.216 487.999 164.334 487.704 164.571C487.409 164.808 487.191 165.119 487.049 165.503C486.908 165.887 486.837 166.302 486.837 166.747C486.837 167.192 486.908 167.605 487.049 167.986C487.191 168.368 487.409 168.675 487.704 168.91C487.999 169.144 488.374 169.261 488.831 169.261ZM499.442 171.15V160.055H500.153V171.15H499.442ZM501.835 163.383C501.782 162.944 501.572 162.603 501.202 162.361C500.832 162.118 500.378 161.996 499.841 161.996C499.448 161.996 499.104 162.06 498.809 162.187C498.517 162.314 498.289 162.489 498.124 162.712C497.963 162.934 497.882 163.187 497.882 163.47C497.882 163.707 497.938 163.911 498.051 164.081C498.166 164.249 498.314 164.389 498.493 164.502C498.672 164.611 498.86 164.702 499.056 164.775C499.253 164.844 499.433 164.9 499.598 164.944L500.5 165.186C500.731 165.247 500.988 165.331 501.271 165.438C501.557 165.545 501.83 165.691 502.09 165.876C502.353 166.058 502.57 166.292 502.74 166.578C502.911 166.864 502.996 167.215 502.996 167.631C502.996 168.111 502.87 168.544 502.619 168.931C502.37 169.318 502.006 169.626 501.527 169.854C501.05 170.083 500.471 170.197 499.789 170.197C499.153 170.197 498.603 170.094 498.137 169.889C497.675 169.684 497.311 169.398 497.045 169.031C496.782 168.664 496.633 168.238 496.599 167.752H497.708C497.737 168.087 497.85 168.365 498.046 168.584C498.246 168.801 498.497 168.963 498.801 169.07C499.107 169.174 499.436 169.226 499.789 169.226C500.199 169.226 500.567 169.159 500.894 169.027C501.22 168.891 501.479 168.703 501.67 168.463C501.861 168.22 501.956 167.937 501.956 167.614C501.956 167.319 501.874 167.079 501.709 166.894C501.544 166.709 501.327 166.559 501.059 166.443C500.79 166.328 500.5 166.227 500.188 166.14L499.095 165.828C498.402 165.629 497.853 165.344 497.448 164.974C497.044 164.604 496.841 164.12 496.841 163.522C496.841 163.025 496.976 162.592 497.245 162.222C497.516 161.849 497.88 161.56 498.337 161.355C498.796 161.147 499.309 161.043 499.875 161.043C500.448 161.043 500.956 161.146 501.401 161.351C501.846 161.553 502.199 161.83 502.459 162.183C502.722 162.535 502.86 162.936 502.875 163.383H501.835ZM507.451 170.162C506.855 170.162 506.329 170.057 505.873 169.846C505.419 169.632 505.065 169.339 504.811 168.966C504.557 168.59 504.431 168.163 504.434 167.683C504.431 167.307 504.505 166.961 504.655 166.643C504.805 166.322 505.01 166.055 505.27 165.841C505.533 165.624 505.827 165.487 506.15 165.429V165.377C505.726 165.267 505.387 165.029 505.136 164.662C504.885 164.292 504.76 163.872 504.763 163.401C504.76 162.95 504.875 162.547 505.106 162.192C505.337 161.836 505.655 161.556 506.059 161.351C506.467 161.146 506.93 161.043 507.451 161.043C507.965 161.043 508.424 161.146 508.829 161.351C509.233 161.556 509.551 161.836 509.782 162.192C510.016 162.547 510.135 162.95 510.138 163.401C510.135 163.872 510.006 164.292 509.752 164.662C509.501 165.029 509.167 165.267 508.751 165.377V165.429C509.072 165.487 509.36 165.624 509.618 165.841C509.875 166.055 510.08 166.322 510.233 166.643C510.386 166.961 510.464 167.307 510.467 167.683C510.464 168.163 510.334 168.59 510.077 168.966C509.823 169.339 509.469 169.632 509.015 169.846C508.564 170.057 508.043 170.162 507.451 170.162ZM507.451 169.209C507.852 169.209 508.199 169.144 508.491 169.014C508.783 168.884 509.008 168.7 509.167 168.463C509.326 168.226 509.407 167.949 509.41 167.631C509.407 167.296 509.32 167 509.15 166.742C508.979 166.485 508.746 166.283 508.452 166.136C508.16 165.988 507.826 165.915 507.451 165.915C507.072 165.915 506.734 165.988 506.436 166.136C506.142 166.283 505.909 166.485 505.739 166.742C505.571 167 505.489 167.296 505.491 167.631C505.489 167.949 505.565 168.226 505.721 168.463C505.88 168.7 506.107 168.884 506.402 169.014C506.696 169.144 507.046 169.209 507.451 169.209ZM507.451 164.996C507.768 164.996 508.05 164.932 508.296 164.805C508.544 164.678 508.739 164.5 508.881 164.272C509.022 164.044 509.095 163.776 509.098 163.47C509.095 163.17 509.024 162.908 508.885 162.686C508.746 162.46 508.554 162.287 508.309 162.166C508.063 162.041 507.777 161.979 507.451 161.979C507.118 161.979 506.828 162.041 506.579 162.166C506.331 162.287 506.139 162.46 506.003 162.686C505.867 162.908 505.801 163.17 505.804 163.47C505.801 163.776 505.869 164.044 506.007 164.272C506.149 164.5 506.344 164.678 506.592 164.805C506.841 164.932 507.127 164.996 507.451 164.996ZM514.954 161.043C515.318 161.046 515.682 161.115 516.046 161.251C516.41 161.387 516.743 161.612 517.043 161.927C517.344 162.239 517.585 162.665 517.767 163.206C517.949 163.746 518.04 164.424 518.04 165.238C518.04 166.027 517.965 166.728 517.815 167.341C517.667 167.95 517.454 168.465 517.173 168.884C516.896 169.303 516.558 169.62 516.159 169.837C515.763 170.054 515.315 170.162 514.815 170.162C514.318 170.162 513.875 170.064 513.485 169.867C513.098 169.668 512.78 169.392 512.531 169.04C512.286 168.684 512.128 168.272 512.059 167.804H513.116C513.212 168.212 513.401 168.548 513.684 168.814C513.97 169.077 514.347 169.209 514.815 169.209C515.5 169.209 516.041 168.91 516.436 168.311C516.835 167.713 517.035 166.868 517.035 165.776H516.965C516.803 166.019 516.611 166.228 516.389 166.404C516.166 166.581 515.919 166.716 515.648 166.812C515.376 166.907 515.087 166.955 514.781 166.955C514.272 166.955 513.806 166.829 513.381 166.578C512.959 166.323 512.621 165.975 512.367 165.533C512.115 165.088 511.99 164.58 511.99 164.008C511.99 163.464 512.111 162.967 512.354 162.517C512.599 162.063 512.943 161.702 513.385 161.433C513.83 161.164 514.353 161.034 514.954 161.043ZM514.954 161.996C514.59 161.996 514.262 162.087 513.97 162.27C513.681 162.449 513.452 162.691 513.281 162.998C513.114 163.301 513.03 163.638 513.03 164.008C513.03 164.377 513.111 164.714 513.272 165.017C513.437 165.318 513.661 165.558 513.944 165.737C514.23 165.913 514.555 166.001 514.919 166.001C515.194 166.001 515.45 165.948 515.687 165.841C515.924 165.731 516.13 165.582 516.306 165.395C516.486 165.204 516.626 164.989 516.727 164.749C516.828 164.506 516.879 164.253 516.879 163.99C516.879 163.643 516.795 163.318 516.627 163.015C516.462 162.712 516.234 162.466 515.942 162.278C515.653 162.09 515.324 161.996 514.954 161.996ZM522.64 170.162C521.987 170.162 521.431 169.984 520.971 169.629C520.512 169.271 520.161 168.752 519.918 168.073C519.675 167.391 519.554 166.568 519.554 165.603C519.554 164.643 519.675 163.824 519.918 163.145C520.164 162.463 520.516 161.943 520.975 161.585C521.438 161.224 521.993 161.043 522.64 161.043C523.287 161.043 523.84 161.224 524.3 161.585C524.762 161.943 525.115 162.463 525.357 163.145C525.603 163.824 525.726 164.643 525.726 165.603C525.726 166.568 525.604 167.391 525.362 168.073C525.119 168.752 524.768 169.271 524.308 169.629C523.849 169.984 523.293 170.162 522.64 170.162ZM522.64 169.209C523.287 169.209 523.79 168.897 524.148 168.272C524.506 167.648 524.686 166.758 524.686 165.603C524.686 164.834 524.603 164.179 524.438 163.639C524.277 163.099 524.043 162.687 523.736 162.404C523.433 162.121 523.067 161.979 522.64 161.979C521.998 161.979 521.497 162.296 521.136 162.928C520.775 163.558 520.594 164.45 520.594 165.603C520.594 166.371 520.675 167.024 520.837 167.562C520.999 168.099 521.231 168.508 521.535 168.788C521.841 169.068 522.209 169.209 522.64 169.209ZM531.846 161.164V170.041H530.823V161.164H531.846ZM535.678 170.197C535.256 170.197 534.873 170.117 534.53 169.958C534.186 169.797 533.913 169.564 533.71 169.261C533.508 168.954 533.407 168.584 533.407 168.151C533.407 167.77 533.482 167.46 533.632 167.224C533.783 166.984 533.983 166.796 534.235 166.66C534.486 166.524 534.764 166.423 535.067 166.357C535.373 166.287 535.681 166.232 535.99 166.192C536.395 166.14 536.723 166.101 536.974 166.075C537.228 166.046 537.413 165.998 537.529 165.932C537.647 165.865 537.707 165.75 537.707 165.585V165.551C537.707 165.123 537.59 164.791 537.356 164.554C537.124 164.317 536.773 164.198 536.302 164.198C535.814 164.198 535.431 164.305 535.154 164.519C534.876 164.733 534.681 164.961 534.569 165.204L533.598 164.857C533.771 164.453 534.002 164.138 534.291 163.912C534.583 163.684 534.901 163.525 535.245 163.435C535.591 163.343 535.932 163.297 536.268 163.297C536.481 163.297 536.727 163.323 537.004 163.375C537.285 163.424 537.555 163.526 537.815 163.682C538.078 163.839 538.296 164.074 538.469 164.389C538.643 164.704 538.729 165.126 538.729 165.655V170.041H537.707V169.139H537.655C537.585 169.284 537.47 169.438 537.308 169.603C537.146 169.768 536.931 169.908 536.662 170.023C536.393 170.139 536.065 170.197 535.678 170.197ZM535.834 169.278C536.239 169.278 536.58 169.198 536.857 169.04C537.137 168.881 537.348 168.675 537.49 168.424C537.634 168.173 537.707 167.908 537.707 167.631V166.695C537.663 166.747 537.568 166.794 537.421 166.838C537.276 166.878 537.108 166.914 536.918 166.946C536.73 166.975 536.546 167.001 536.367 167.024C536.191 167.044 536.048 167.062 535.938 167.076C535.672 167.111 535.424 167.167 535.193 167.245C534.964 167.32 534.78 167.434 534.638 167.588C534.499 167.738 534.43 167.943 534.43 168.203C534.43 168.558 534.561 168.827 534.824 169.009C535.09 169.188 535.427 169.278 535.834 169.278ZM545.312 164.874L544.393 165.134C544.335 164.981 544.25 164.832 544.137 164.688C544.028 164.541 543.877 164.419 543.687 164.324C543.496 164.229 543.252 164.181 542.954 164.181C542.547 164.181 542.207 164.275 541.936 164.463C541.667 164.648 541.533 164.883 541.533 165.169C541.533 165.423 541.625 165.624 541.81 165.772C541.995 165.919 542.284 166.042 542.677 166.14L543.665 166.383C544.26 166.527 544.704 166.748 544.996 167.046C545.287 167.341 545.433 167.721 545.433 168.186C545.433 168.567 545.324 168.908 545.104 169.209C544.887 169.509 544.584 169.746 544.194 169.919C543.804 170.093 543.35 170.179 542.833 170.179C542.154 170.179 541.592 170.032 541.147 169.737C540.702 169.443 540.42 169.012 540.302 168.446L541.273 168.203C541.365 168.561 541.54 168.83 541.797 169.009C542.057 169.188 542.397 169.278 542.816 169.278C543.292 169.278 543.671 169.177 543.951 168.975C544.234 168.769 544.376 168.524 544.376 168.238C544.376 168.007 544.295 167.813 544.133 167.657C543.971 167.498 543.723 167.38 543.388 167.302L542.278 167.041C541.668 166.897 541.221 166.673 540.934 166.37C540.651 166.063 540.51 165.681 540.51 165.221C540.51 164.846 540.615 164.513 540.826 164.224C541.04 163.935 541.33 163.708 541.697 163.544C542.067 163.379 542.486 163.297 542.954 163.297C543.613 163.297 544.13 163.441 544.506 163.73C544.884 164.019 545.153 164.401 545.312 164.874ZM549.868 163.383V164.25H546.418V163.383H549.868ZM547.424 161.788H548.447V168.134C548.447 168.423 548.489 168.639 548.572 168.784C548.659 168.925 548.769 169.021 548.902 169.07C549.038 169.116 549.181 169.139 549.331 169.139C549.444 169.139 549.536 169.133 549.608 169.122C549.681 169.107 549.738 169.096 549.782 169.087L549.99 170.006C549.92 170.032 549.824 170.058 549.699 170.084C549.575 170.113 549.418 170.127 549.227 170.127C548.938 170.127 548.655 170.065 548.377 169.941C548.103 169.817 547.875 169.628 547.693 169.373C547.513 169.119 547.424 168.798 547.424 168.411V161.788ZM554.84 170.041V163.383H555.828V164.424H555.915C556.053 164.068 556.277 163.792 556.586 163.596C556.896 163.396 557.267 163.297 557.7 163.297C558.139 163.297 558.505 163.396 558.797 163.596C559.092 163.792 559.321 164.068 559.486 164.424H559.555C559.726 164.08 559.982 163.807 560.322 163.604C560.663 163.399 561.072 163.297 561.549 163.297C562.144 163.297 562.631 163.483 563.01 163.856C563.388 164.226 563.577 164.802 563.577 165.585V170.041H562.555V165.585C562.555 165.094 562.42 164.743 562.152 164.532C561.883 164.321 561.566 164.216 561.202 164.216C560.734 164.216 560.372 164.357 560.114 164.64C559.857 164.921 559.729 165.276 559.729 165.707V170.041H558.688V165.481C558.688 165.103 558.566 164.798 558.32 164.567C558.074 164.333 557.758 164.216 557.371 164.216C557.105 164.216 556.857 164.286 556.625 164.428C556.397 164.57 556.212 164.766 556.071 165.017C555.932 165.266 555.863 165.553 555.863 165.88V170.041H554.84ZM568.152 170.179C567.551 170.179 567.024 170.036 566.57 169.75C566.119 169.464 565.767 169.064 565.513 168.55C565.261 168.035 565.136 167.434 565.136 166.747C565.136 166.053 565.261 165.448 565.513 164.931C565.767 164.414 566.119 164.012 566.57 163.726C567.024 163.44 567.551 163.297 568.152 163.297C568.753 163.297 569.279 163.44 569.73 163.726C570.184 164.012 570.536 164.414 570.787 164.931C571.042 165.448 571.169 166.053 571.169 166.747C571.169 167.434 571.042 168.035 570.787 168.55C570.536 169.064 570.184 169.464 569.73 169.75C569.279 170.036 568.753 170.179 568.152 170.179ZM568.152 169.261C568.609 169.261 568.984 169.144 569.279 168.91C569.574 168.675 569.792 168.368 569.934 167.986C570.075 167.605 570.146 167.192 570.146 166.747C570.146 166.302 570.075 165.887 569.934 165.503C569.792 165.119 569.574 164.808 569.279 164.571C568.984 164.334 568.609 164.216 568.152 164.216C567.696 164.216 567.32 164.334 567.025 164.571C566.731 164.808 566.512 165.119 566.371 165.503C566.229 165.887 566.158 166.302 566.158 166.747C566.158 167.192 566.229 167.605 566.371 167.986C566.512 168.368 566.731 168.675 567.025 168.91C567.32 169.144 567.696 169.261 568.152 169.261ZM573.753 166.036V170.041H572.73V163.383H573.718V164.424H573.805C573.961 164.086 574.198 163.814 574.516 163.609C574.834 163.401 575.244 163.297 575.747 163.297C576.198 163.297 576.592 163.389 576.93 163.574C577.268 163.756 577.531 164.034 577.719 164.406C577.907 164.776 578.001 165.244 578.001 165.811V170.041H576.978V165.88C576.978 165.357 576.842 164.95 576.57 164.658C576.299 164.363 575.926 164.216 575.452 164.216C575.126 164.216 574.834 164.286 574.577 164.428C574.322 164.57 574.122 164.776 573.974 165.048C573.827 165.319 573.753 165.649 573.753 166.036ZM582.765 163.383V164.25H579.315V163.383H582.765ZM580.321 161.788H581.343V168.134C581.343 168.423 581.385 168.639 581.469 168.784C581.556 168.925 581.666 169.021 581.798 169.07C581.934 169.116 582.077 169.139 582.228 169.139C582.34 169.139 582.433 169.133 582.505 169.122C582.577 169.107 582.635 169.096 582.678 169.087L582.886 170.006C582.817 170.032 582.72 170.058 582.596 170.084C582.472 170.113 582.314 170.127 582.124 170.127C581.835 170.127 581.551 170.065 581.274 169.941C581 169.817 580.771 169.628 580.589 169.373C580.41 169.119 580.321 168.798 580.321 168.411V161.788ZM585.47 166.036V170.041H584.447V161.164H585.47V164.424H585.556C585.712 164.08 585.946 163.807 586.258 163.604C586.573 163.399 586.992 163.297 587.515 163.297C587.969 163.297 588.366 163.388 588.707 163.57C589.048 163.749 589.313 164.025 589.5 164.398C589.691 164.767 589.786 165.238 589.786 165.811V170.041H588.764V165.88C588.764 165.351 588.626 164.942 588.352 164.653C588.08 164.362 587.703 164.216 587.221 164.216C586.885 164.216 586.585 164.286 586.319 164.428C586.056 164.57 585.848 164.776 585.695 165.048C585.545 165.319 585.47 165.649 585.47 166.036Z" fill="#656575"/>
<g clip-path="url(#clip3_1_7517)">
<path d="M424.474 150.132V127.941H425.896V150.132H424.474ZM428.245 135.266C428.176 134.566 427.878 134.023 427.352 133.636C426.826 133.249 426.112 133.055 425.211 133.055C424.598 133.055 424.081 133.142 423.659 133.315C423.237 133.483 422.914 133.717 422.688 134.017C422.469 134.318 422.359 134.659 422.359 135.04C422.347 135.358 422.414 135.635 422.558 135.872C422.709 136.109 422.914 136.315 423.174 136.488C423.434 136.655 423.734 136.803 424.075 136.93C424.416 137.051 424.78 137.155 425.168 137.242L426.763 137.623C427.537 137.797 428.248 138.028 428.895 138.317C429.542 138.606 430.103 138.961 430.577 139.383C431.051 139.805 431.418 140.302 431.678 140.874C431.943 141.446 432.079 142.102 432.085 142.842C432.079 143.928 431.802 144.87 431.253 145.668C430.71 146.459 429.924 147.075 428.895 147.514C427.872 147.948 426.638 148.164 425.194 148.164C423.76 148.164 422.512 147.945 421.449 147.505C420.391 147.066 419.565 146.416 418.97 145.555C418.38 144.688 418.071 143.616 418.042 142.339H421.674C421.715 142.934 421.885 143.431 422.186 143.83C422.492 144.223 422.899 144.521 423.408 144.723C423.922 144.919 424.503 145.018 425.15 145.018C425.786 145.018 426.338 144.925 426.806 144.74C427.28 144.555 427.647 144.298 427.907 143.969C428.167 143.639 428.297 143.261 428.297 142.833C428.297 142.434 428.178 142.099 427.941 141.828C427.71 141.556 427.369 141.325 426.919 141.134C426.474 140.943 425.928 140.77 425.28 140.614L423.347 140.129C421.85 139.765 420.669 139.195 419.802 138.421C418.935 137.647 418.504 136.603 418.51 135.292C418.504 134.217 418.791 133.278 419.368 132.474C419.952 131.671 420.752 131.044 421.77 130.593C422.787 130.143 423.942 129.917 425.237 129.917C426.555 129.917 427.705 130.143 428.687 130.593C429.675 131.044 430.444 131.671 430.993 132.474C431.542 133.278 431.825 134.208 431.842 135.266H428.245ZM442.229 130.16V147.913H438.476V133.723H438.372L434.306 136.271V132.942L438.701 130.16H442.229ZM449.543 145.486L449.448 146.439C449.373 147.202 449.228 147.962 449.014 148.719C448.806 149.482 448.587 150.172 448.356 150.791C448.13 151.409 447.948 151.895 447.809 152.247H445.417C445.504 151.906 445.622 151.429 445.772 150.817C445.923 150.21 446.064 149.528 446.197 148.771C446.33 148.014 446.414 147.242 446.449 146.457L446.492 145.486H449.543ZM458.875 148.156C457.58 148.156 456.427 147.933 455.416 147.488C454.41 147.037 453.616 146.419 453.032 145.633C452.454 144.841 452.157 143.928 452.139 142.894H455.919C455.942 143.327 456.083 143.709 456.344 144.038C456.609 144.362 456.962 144.613 457.401 144.792C457.84 144.971 458.334 145.061 458.883 145.061C459.456 145.061 459.961 144.96 460.4 144.758C460.84 144.555 461.183 144.275 461.432 143.917C461.68 143.558 461.805 143.145 461.805 142.677C461.805 142.203 461.672 141.784 461.406 141.42C461.146 141.05 460.77 140.761 460.279 140.553C459.794 140.345 459.216 140.241 458.545 140.241H456.89V137.485H458.545C459.112 137.485 459.612 137.386 460.045 137.19C460.484 136.994 460.825 136.722 461.068 136.375C461.311 136.023 461.432 135.612 461.432 135.144C461.432 134.699 461.325 134.309 461.111 133.974C460.903 133.633 460.608 133.367 460.227 133.177C459.851 132.986 459.412 132.89 458.909 132.89C458.401 132.89 457.936 132.983 457.514 133.168C457.092 133.347 456.754 133.604 456.5 133.939C456.245 134.275 456.11 134.668 456.092 135.118H452.495C452.512 134.095 452.804 133.194 453.37 132.414C453.937 131.634 454.699 131.024 455.659 130.585C456.624 130.14 457.713 129.917 458.927 129.917C460.152 129.917 461.224 130.14 462.143 130.585C463.062 131.03 463.775 131.631 464.284 132.388C464.798 133.139 465.052 133.983 465.047 134.919C465.052 135.913 464.743 136.742 464.119 137.407C463.501 138.071 462.695 138.493 461.701 138.672V138.811C463.007 138.979 464.001 139.432 464.683 140.172C465.37 140.906 465.711 141.825 465.705 142.929C465.711 143.94 465.419 144.838 464.83 145.624C464.246 146.41 463.44 147.029 462.411 147.479C461.383 147.93 460.204 148.156 458.875 148.156ZM468.403 147.913V145.208L474.723 139.357C475.26 138.837 475.711 138.369 476.075 137.953C476.445 137.537 476.725 137.129 476.916 136.731C477.107 136.326 477.202 135.89 477.202 135.422C477.202 134.902 477.083 134.454 476.847 134.078C476.61 133.697 476.286 133.405 475.876 133.203C475.465 132.994 475 132.89 474.48 132.89C473.937 132.89 473.463 133 473.058 133.22C472.654 133.439 472.342 133.754 472.122 134.165C471.903 134.575 471.793 135.063 471.793 135.63H468.23C468.23 134.468 468.493 133.46 469.019 132.604C469.545 131.749 470.282 131.087 471.229 130.619C472.177 130.151 473.269 129.917 474.506 129.917C475.777 129.917 476.884 130.143 477.826 130.593C478.774 131.038 479.511 131.657 480.036 132.448C480.562 133.24 480.825 134.147 480.825 135.17C480.825 135.841 480.692 136.502 480.427 137.155C480.167 137.808 479.701 138.534 479.031 139.331C478.361 140.123 477.416 141.073 476.196 142.183L473.605 144.723V144.844H481.059V147.913H468.403ZM483.129 144.792V141.836L490.54 130.16H493.089V134.251H491.581L486.908 141.646V141.784H497.441V144.792H483.129ZM491.65 147.913V143.891L491.719 142.582V130.16H495.239V147.913H491.65Z" fill="#2E2E3A"/>
<path d="M511.592 145.47V138.456H513.365V145.47H511.592ZM508.972 142.85V141.076H515.986V142.85H508.972ZM517.762 145.232V143.543L521.997 136.871H523.454V139.209H522.592L519.922 143.434V143.513H525.94V145.232H517.762ZM522.631 147.015V144.717L522.671 143.969V136.871H524.682V147.015H522.631ZM528.306 147.144C527.979 147.144 527.699 147.029 527.464 146.797C527.233 146.563 527.117 146.282 527.117 145.955C527.117 145.632 527.233 145.354 527.464 145.123C527.699 144.892 527.979 144.776 528.306 144.776C528.623 144.776 528.901 144.892 529.138 145.123C529.376 145.354 529.495 145.632 529.495 145.955C529.495 146.173 529.439 146.373 529.327 146.555C529.218 146.733 529.074 146.877 528.896 146.986C528.717 147.091 528.521 147.144 528.306 147.144ZM534.706 147.154C534.005 147.154 533.381 147.025 532.833 146.768C532.288 146.51 531.856 146.155 531.535 145.703C531.215 145.25 531.048 144.732 531.035 144.147H533.116C533.139 144.54 533.304 144.859 533.611 145.103C533.918 145.348 534.283 145.47 534.706 145.47C535.042 145.47 535.34 145.396 535.597 145.247C535.858 145.095 536.061 144.885 536.206 144.618C536.355 144.347 536.429 144.037 536.429 143.687C536.429 143.33 536.353 143.016 536.201 142.746C536.053 142.475 535.846 142.263 535.582 142.112C535.318 141.96 535.016 141.882 534.676 141.879C534.379 141.879 534.09 141.94 533.809 142.062C533.532 142.184 533.315 142.351 533.16 142.562L531.253 142.221L531.734 136.871H537.935V138.624H533.502L533.239 141.165H533.299C533.477 140.914 533.746 140.706 534.106 140.541C534.466 140.376 534.869 140.294 535.315 140.294C535.926 140.294 536.471 140.437 536.949 140.725C537.428 141.012 537.806 141.407 538.084 141.908C538.361 142.407 538.498 142.982 538.495 143.632C538.498 144.316 538.34 144.923 538.019 145.455C537.702 145.983 537.258 146.4 536.687 146.703C536.119 147.004 535.458 147.154 534.706 147.154ZM545.418 145.113V144.578C545.418 144.172 545.504 143.799 545.676 143.459C545.851 143.115 546.103 142.841 546.433 142.637C546.767 142.429 547.173 142.325 547.652 142.325C548.137 142.325 548.545 142.427 548.875 142.632C549.209 142.836 549.46 143.11 549.628 143.454C549.8 143.794 549.886 144.169 549.886 144.578V145.113C549.886 145.519 549.8 145.894 549.628 146.238C549.457 146.578 549.204 146.85 548.871 147.055C548.537 147.263 548.131 147.367 547.652 147.367C547.167 147.367 546.759 147.263 546.429 147.055C546.098 146.85 545.847 146.578 545.676 146.238C545.504 145.894 545.418 145.519 545.418 145.113ZM546.859 144.578V145.113C546.859 145.348 546.916 145.569 547.028 145.777C547.143 145.985 547.351 146.089 547.652 146.089C547.953 146.089 548.157 145.987 548.266 145.782C548.378 145.577 548.435 145.354 548.435 145.113V144.578C548.435 144.337 548.382 144.113 548.276 143.905C548.17 143.697 547.962 143.593 547.652 143.593C547.355 143.593 547.148 143.697 547.033 143.905C546.917 144.113 546.859 144.337 546.859 144.578ZM540.212 139.308V138.773C540.212 138.363 540.3 137.989 540.475 137.649C540.65 137.305 540.902 137.031 541.232 136.826C541.566 136.622 541.969 136.519 542.441 136.519C542.93 136.519 543.339 136.622 543.669 136.826C544 137.031 544.251 137.305 544.422 137.649C544.594 137.989 544.68 138.363 544.68 138.773V139.308C544.68 139.717 544.592 140.092 544.417 140.432C544.246 140.772 543.993 141.045 543.66 141.25C543.329 141.451 542.923 141.552 542.441 141.552C541.959 141.552 541.551 141.449 541.218 141.245C540.887 141.037 540.636 140.764 540.465 140.427C540.296 140.087 540.212 139.714 540.212 139.308ZM541.663 138.773V139.308C541.663 139.549 541.719 139.772 541.832 139.977C541.947 140.181 542.15 140.284 542.441 140.284C542.745 140.284 542.951 140.181 543.06 139.977C543.172 139.772 543.229 139.549 543.229 139.308V138.773C543.229 138.532 543.176 138.307 543.07 138.099C542.964 137.891 542.755 137.787 542.441 137.787C542.147 137.787 541.944 137.893 541.832 138.104C541.719 138.316 541.663 138.538 541.663 138.773ZM540.866 147.015L547.84 136.871H549.138L542.164 147.015H540.866Z" fill="#24CA49"/>
</g>
<path d="M427.12 108.268H424.95C424.91 107.987 424.829 107.738 424.707 107.52C424.585 107.299 424.428 107.111 424.237 106.955C424.045 106.8 423.824 106.681 423.573 106.599C423.325 106.516 423.056 106.475 422.766 106.475C422.24 106.475 421.783 106.605 421.393 106.866C421.004 107.124 420.702 107.5 420.487 107.996C420.272 108.488 420.165 109.085 420.165 109.789C420.165 110.512 420.272 111.12 420.487 111.612C420.705 112.104 421.009 112.475 421.398 112.726C421.788 112.977 422.239 113.103 422.751 113.103C423.038 113.103 423.304 113.065 423.548 112.989C423.796 112.913 424.015 112.802 424.207 112.657C424.399 112.508 424.557 112.328 424.683 112.117C424.811 111.906 424.9 111.665 424.95 111.394L427.12 111.404C427.063 111.869 426.923 112.318 426.699 112.751C426.477 113.18 426.178 113.565 425.802 113.905C425.429 114.242 424.983 114.509 424.465 114.708C423.949 114.902 423.367 115 422.716 115C421.811 115 421.002 114.795 420.289 114.386C419.579 113.976 419.017 113.383 418.605 112.607C418.195 111.831 417.99 110.892 417.99 109.789C417.99 108.683 418.199 107.741 418.615 106.965C419.031 106.189 419.595 105.598 420.309 105.192C421.022 104.783 421.824 104.578 422.716 104.578C423.304 104.578 423.849 104.66 424.351 104.826C424.856 104.991 425.303 105.232 425.693 105.549C426.083 105.862 426.4 106.247 426.644 106.703C426.892 107.159 427.05 107.68 427.12 108.268ZM430.662 115.005C430.177 115.005 429.744 114.921 429.364 114.752C428.984 114.58 428.684 114.328 428.463 113.994C428.245 113.657 428.136 113.238 428.136 112.736C428.136 112.313 428.213 111.958 428.369 111.671C428.524 111.384 428.735 111.153 429.003 110.978C429.27 110.803 429.574 110.671 429.914 110.581C430.257 110.492 430.617 110.429 430.994 110.393C431.436 110.347 431.793 110.304 432.064 110.264C432.335 110.221 432.531 110.159 432.653 110.076C432.775 109.994 432.837 109.871 432.837 109.71V109.68C432.837 109.366 432.737 109.123 432.539 108.952C432.345 108.78 432.067 108.694 431.707 108.694C431.327 108.694 431.025 108.778 430.801 108.947C430.576 109.112 430.428 109.32 430.355 109.571L428.403 109.412C428.502 108.95 428.697 108.55 428.988 108.214C429.278 107.874 429.653 107.613 430.112 107.431C430.574 107.246 431.109 107.154 431.717 107.154C432.14 107.154 432.544 107.203 432.931 107.302C433.32 107.401 433.665 107.555 433.966 107.763C434.27 107.971 434.509 108.238 434.684 108.565C434.859 108.889 434.947 109.277 434.947 109.729V114.861H432.946V113.806H432.886C432.764 114.044 432.6 114.253 432.396 114.435C432.191 114.613 431.945 114.754 431.658 114.856C431.37 114.955 431.038 115.005 430.662 115.005ZM431.266 113.548C431.577 113.548 431.851 113.487 432.089 113.365C432.326 113.24 432.513 113.071 432.648 112.86C432.784 112.649 432.851 112.409 432.851 112.142V111.334C432.785 111.377 432.695 111.417 432.579 111.453C432.467 111.486 432.34 111.518 432.198 111.547C432.056 111.574 431.914 111.598 431.772 111.622C431.63 111.641 431.501 111.66 431.385 111.676C431.138 111.712 430.921 111.77 430.736 111.849C430.551 111.929 430.408 112.036 430.305 112.171C430.203 112.303 430.152 112.469 430.152 112.667C430.152 112.954 430.256 113.174 430.464 113.326C430.675 113.474 430.943 113.548 431.266 113.548ZM442.789 109.422L440.857 109.541C440.824 109.376 440.753 109.227 440.644 109.095C440.535 108.96 440.391 108.853 440.213 108.773C440.038 108.691 439.828 108.65 439.584 108.65C439.257 108.65 438.981 108.719 438.757 108.858C438.532 108.993 438.42 109.175 438.42 109.402C438.42 109.584 438.492 109.738 438.638 109.863C438.783 109.989 439.032 110.089 439.386 110.165L440.763 110.443C441.502 110.595 442.054 110.839 442.417 111.176C442.78 111.513 442.962 111.955 442.962 112.503C442.962 113.002 442.815 113.439 442.521 113.816C442.231 114.192 441.831 114.486 441.322 114.698C440.817 114.906 440.234 115.01 439.574 115.01C438.567 115.01 437.764 114.8 437.167 114.381C436.572 113.958 436.224 113.383 436.121 112.657L438.197 112.548C438.26 112.855 438.412 113.089 438.653 113.251C438.894 113.41 439.202 113.489 439.579 113.489C439.949 113.489 440.246 113.418 440.47 113.276C440.698 113.131 440.814 112.944 440.817 112.716C440.814 112.525 440.733 112.368 440.574 112.246C440.416 112.12 440.172 112.024 439.841 111.958L438.524 111.696C437.781 111.547 437.228 111.29 436.864 110.923C436.504 110.557 436.324 110.089 436.324 109.521C436.324 109.033 436.457 108.612 436.721 108.258C436.988 107.905 437.363 107.632 437.845 107.441C438.331 107.249 438.899 107.154 439.549 107.154C440.51 107.154 441.266 107.357 441.818 107.763C442.373 108.169 442.696 108.722 442.789 109.422ZM446.275 110.462V114.861H444.165V104.717H446.216V108.595H446.305C446.477 108.146 446.754 107.794 447.137 107.54C447.52 107.282 448.001 107.154 448.579 107.154C449.107 107.154 449.568 107.269 449.961 107.5C450.357 107.728 450.664 108.057 450.882 108.486C451.103 108.912 451.212 109.422 451.209 110.017V114.861H449.099V110.393C449.102 109.924 448.983 109.559 448.742 109.298C448.504 109.038 448.171 108.907 447.742 108.907C447.454 108.907 447.2 108.968 446.979 109.09C446.761 109.213 446.589 109.391 446.464 109.625C446.341 109.857 446.279 110.136 446.275 110.462ZM452.784 114.861V104.717H454.894V108.531H454.958C455.051 108.326 455.184 108.118 455.359 107.907C455.538 107.692 455.769 107.514 456.053 107.372C456.34 107.226 456.697 107.154 457.123 107.154C457.678 107.154 458.189 107.299 458.658 107.59C459.127 107.877 459.502 108.311 459.783 108.892C460.063 109.47 460.204 110.195 460.204 111.067C460.204 111.915 460.067 112.632 459.793 113.217C459.522 113.798 459.152 114.239 458.683 114.539C458.218 114.836 457.696 114.985 457.118 114.985C456.708 114.985 456.36 114.917 456.073 114.782C455.789 114.646 455.556 114.476 455.374 114.272C455.193 114.064 455.054 113.854 454.958 113.643H454.864V114.861H452.784ZM454.849 111.057C454.849 111.509 454.912 111.904 455.037 112.241C455.163 112.578 455.345 112.84 455.582 113.028C455.82 113.213 456.109 113.306 456.449 113.306C456.793 113.306 457.083 113.212 457.321 113.023C457.559 112.832 457.739 112.568 457.861 112.231C457.986 111.891 458.049 111.499 458.049 111.057C458.049 110.618 457.988 110.231 457.866 109.898C457.744 109.564 457.564 109.303 457.326 109.115C457.088 108.927 456.796 108.833 456.449 108.833C456.106 108.833 455.815 108.924 455.577 109.105C455.343 109.287 455.163 109.544 455.037 109.878C454.912 110.212 454.849 110.604 454.849 111.057ZM463.656 115.005C463.17 115.005 462.738 114.921 462.358 114.752C461.978 114.58 461.678 114.328 461.457 113.994C461.239 113.657 461.13 113.238 461.13 112.736C461.13 112.313 461.207 111.958 461.362 111.671C461.518 111.384 461.729 111.153 461.996 110.978C462.264 110.803 462.568 110.671 462.908 110.581C463.251 110.492 463.611 110.429 463.988 110.393C464.43 110.347 464.787 110.304 465.058 110.264C465.328 110.221 465.525 110.159 465.647 110.076C465.769 109.994 465.83 109.871 465.83 109.71V109.68C465.83 109.366 465.731 109.123 465.533 108.952C465.338 108.78 465.061 108.694 464.701 108.694C464.321 108.694 464.019 108.778 463.795 108.947C463.57 109.112 463.421 109.32 463.349 109.571L461.397 109.412C461.496 108.95 461.691 108.55 461.982 108.214C462.272 107.874 462.647 107.613 463.106 107.431C463.568 107.246 464.103 107.154 464.711 107.154C465.134 107.154 465.538 107.203 465.924 107.302C466.314 107.401 466.659 107.555 466.96 107.763C467.264 107.971 467.503 108.238 467.678 108.565C467.853 108.889 467.941 109.277 467.941 109.729V114.861H465.939V113.806H465.88C465.758 114.044 465.594 114.253 465.39 114.435C465.185 114.613 464.939 114.754 464.651 114.856C464.364 114.955 464.032 115.005 463.656 115.005ZM464.26 113.548C464.571 113.548 464.845 113.487 465.082 113.365C465.32 113.24 465.507 113.071 465.642 112.86C465.778 112.649 465.845 112.409 465.845 112.142V111.334C465.779 111.377 465.688 111.417 465.573 111.453C465.461 111.486 465.333 111.518 465.191 111.547C465.049 111.574 464.907 111.598 464.765 111.622C464.623 111.641 464.495 111.66 464.379 111.676C464.131 111.712 463.915 111.77 463.73 111.849C463.545 111.929 463.402 112.036 463.299 112.171C463.197 112.303 463.146 112.469 463.146 112.667C463.146 112.954 463.25 113.174 463.458 113.326C463.669 113.474 463.937 113.548 464.26 113.548ZM472.89 115.01C472.11 115.01 471.44 114.845 470.879 114.514C470.321 114.181 469.891 113.719 469.591 113.127C469.294 112.536 469.145 111.856 469.145 111.087C469.145 110.307 469.295 109.624 469.596 109.036C469.9 108.445 470.33 107.984 470.889 107.654C471.447 107.32 472.11 107.154 472.88 107.154C473.544 107.154 474.125 107.274 474.623 107.515C475.122 107.756 475.517 108.095 475.807 108.531C476.098 108.967 476.258 109.478 476.288 110.066H474.296C474.24 109.686 474.092 109.381 473.851 109.15C473.613 108.915 473.301 108.798 472.914 108.798C472.588 108.798 472.302 108.887 472.058 109.066C471.816 109.241 471.628 109.497 471.493 109.833C471.357 110.17 471.29 110.578 471.29 111.057C471.29 111.542 471.356 111.955 471.488 112.295C471.623 112.635 471.813 112.895 472.058 113.073C472.302 113.251 472.588 113.34 472.914 113.34C473.156 113.34 473.372 113.291 473.563 113.192C473.758 113.093 473.918 112.949 474.044 112.761C474.173 112.569 474.257 112.34 474.296 112.072H476.288C476.255 112.654 476.096 113.165 475.812 113.608C475.532 114.047 475.144 114.391 474.648 114.638C474.153 114.886 473.567 115.01 472.89 115.01ZM479.425 112.672L479.43 110.141H479.737L482.174 107.253H484.597L481.322 111.077H480.822L479.425 112.672ZM477.513 114.861V104.717H479.623V114.861H477.513ZM482.268 114.861L480.03 111.547L481.436 110.056L484.74 114.861H482.268Z" fill="#262631"/>
</g>
<defs>
<filter id="filter0_d_1_7517" x="-6.86646e-05" y="0.000114918" width="570.792" height="435.149" filterUnits="userSpaceOnUse" color-interpolation-filters="sRGB">
<feFlood flood-opacity="0" result="BackgroundImageFix"/>
<feColorMatrix in="SourceAlpha" type="matrix" values="0 0 0 0 0 0 0 0 0 0 0 0 0 0 0 0 0 0 127 0" result="hardAlpha"/>
<feOffset dy="4.07709"/>
<feGaussianBlur stdDeviation="30.5782"/>
<feComposite in2="hardAlpha" operator="out"/>
<feColorMatrix type="matrix" values="0 0 0 0 0 0 0 0 0 0 0 0 0 0 0 0 0 0 0.08 0"/>
<feBlend mode="normal" in2="BackgroundImageFix" result="effect1_dropShadow_1_7517"/>
<feBlend mode="normal" in="SourceGraphic" in2="effect1_dropShadow_1_7517" result="shape"/>
</filter>
<filter id="filter1_d_1_7517" x="349.636" y="80.4241" width="316.205" height="202" filterUnits="userSpaceOnUse" color-interpolation-filters="sRGB">
<feFlood flood-opacity="0" result="BackgroundImageFix"/>
<feColorMatrix in="SourceAlpha" type="matrix" values="0 0 0 0 0 0 0 0 0 0 0 0 0 0 0 0 0 0 127 0" result="hardAlpha"/>
<feOffset dy="44"/>
<feGaussianBlur stdDeviation="25"/>
<feComposite in2="hardAlpha" operator="out"/>
<feColorMatrix type="matrix" values="0 0 0 0 0 0 0 0 0 0 0 0 0 0 0 0 0 0 0.08 0"/>
<feBlend mode="normal" in2="BackgroundImageFix" result="effect1_dropShadow_1_7517"/>
<feBlend mode="normal" in="SourceGraphic" in2="effect1_dropShadow_1_7517" result="shape"/>
</filter>
<clipPath id="clip0_1_7517">
<rect width="29.3284" height="29.3284" fill="white" transform="translate(114.926 110.848)"/>
</clipPath>
<clipPath id="clip1_1_7517">
<rect width="29.3284" height="29.3284" fill="white" transform="translate(114.926 198.833)"/>
</clipPath>
<clipPath id="clip2_1_7517">
<rect width="29.3284" height="29.3284" fill="white" transform="translate(436.315 286.818)"/>
</clipPath>
<clipPath id="clip3_1_7517">
<rect width="134.256" height="30.5128" fill="white" transform="translate(417.071 123.913)"/>
</clipPath>
</defs>
</svg>
