<svg width="22" height="30" viewBox="0 0 22 30" fill="none" xmlns="http://www.w3.org/2000/svg">
<path d="M10.706 0C6.53068 0 3.21181 3.32143 3.21181 7.5V8.57143C1.39178 8.57143 0 9.96428 0 11.7857V19.2857C0 25.1786 4.81771 30 10.706 30C16.5943 30 21.4121 25.1786 21.4121 19.2857V11.7857C21.4121 9.96428 20.0203 8.57143 18.2002 8.57143V7.5C18.2002 3.32143 14.8814 0 10.706 0ZM19.2708 11.7857V19.2857C19.2708 24 15.4167 27.8571 10.706 27.8571C5.99537 27.8571 2.14121 24 2.14121 19.2857V11.7857C2.14121 11.1429 2.56945 10.7143 3.21181 10.7143H4.28241H17.1296H18.2002C18.8426 10.7143 19.2708 11.1429 19.2708 11.7857ZM5.35301 8.57143V7.5C5.35301 4.5 7.70834 2.14286 10.706 2.14286C13.7037 2.14286 16.059 4.5 16.059 7.5V8.57143H5.35301Z" fill="#12141D"/>
<path d="M9.85059 16.8217H13.3836C14.0259 16.8217 14.4542 16.3931 14.4542 15.7503C14.4542 15.1074 14.0259 14.6789 13.3836 14.6789H11.7777V13.9289C11.7777 13.286 11.3494 12.8574 10.7071 12.8574C10.0647 12.8574 9.63647 13.286 9.63647 13.9289V14.6789C8.13762 14.786 6.95996 15.9646 6.95996 17.4646C6.95996 19.0717 8.24468 20.3574 9.85059 20.3574H11.6706C12.0989 20.3574 12.42 20.6789 12.42 21.1074C12.42 21.536 12.0989 21.8574 11.6706 21.8574H8.13762C7.49526 21.8574 7.06702 22.286 7.06702 22.9289C7.06702 23.5717 7.49526 24.0003 8.13762 24.0003H9.63647V24.6431C9.63647 25.286 10.0647 25.7146 10.7071 25.7146C11.3494 25.7146 11.7777 25.286 11.7777 24.6431V23.8931C13.2765 23.786 14.4542 22.6074 14.4542 21.1074C14.4542 19.5003 13.1695 18.2146 11.5636 18.2146H9.74353C9.31529 18.2146 8.99411 17.8931 8.99411 17.4646C9.10117 17.1431 9.42235 16.8217 9.85059 16.8217Z" fill="#12141D"/>
</svg>
