<svg width="29" height="31" viewBox="0 0 29 31" fill="none" xmlns="http://www.w3.org/2000/svg">
<path d="M24.3633 14.4275C24.0704 14.4275 23.7895 14.3111 23.5825 14.1038C23.3754 13.8966 23.2591 13.6155 23.2591 13.3225V10.2018C23.2591 5.78161 19.178 2.24546 14.1605 2.24546C9.14302 2.24546 5.06191 5.82581 5.06191 10.2018V13.3225C5.06191 13.6155 4.94557 13.8966 4.7385 14.1038C4.53142 14.3111 4.25056 14.4275 3.95771 14.4275C3.66486 14.4275 3.384 14.3111 3.17693 14.1038C2.96985 13.8966 2.85352 13.6155 2.85352 13.3225V10.2018C2.85352 4.57932 7.93282 0 14.1605 0C20.3882 0 25.4675 4.57932 25.4675 10.2018V13.3225C25.4686 13.4679 25.4409 13.6121 25.3858 13.7467C25.3307 13.8813 25.2494 14.0036 25.1467 14.1065C25.0439 14.2093 24.9217 14.2907 24.7872 14.3458C24.6527 14.4009 24.5086 14.4287 24.3633 14.4275Z" fill="#12141D"/>
<path d="M21.3772 24.8245C21.0844 24.8245 20.8035 24.7081 20.5965 24.5009C20.3894 24.2936 20.273 24.0125 20.273 23.7195V13.2259C20.2822 12.939 20.4026 12.667 20.6087 12.4673C20.8148 12.2677 21.0904 12.1561 21.3772 12.1563C25.1845 12.1563 28.2851 15.0117 28.2851 18.5125C28.2851 22.0133 25.1845 24.8245 21.3772 24.8245ZM22.4814 14.4459V22.4995C23.4482 22.3393 24.3311 21.853 24.9835 21.1213C25.6359 20.3896 26.0185 19.4565 26.0679 18.4771C26.0205 17.4962 25.6387 16.5611 24.9861 15.8276C24.3336 15.094 23.4496 14.6064 22.4814 14.4459ZM6.90785 24.8245C3.10058 24.8245 0 21.9779 0 18.4771C0 14.9763 3.10058 12.1563 6.90785 12.1563C7.2007 12.1563 7.48156 12.2727 7.68864 12.4799C7.89571 12.6871 8.01205 12.9682 8.01205 13.2613V23.7195C8.01205 24.0125 7.89571 24.2936 7.68864 24.5009C7.48156 24.7081 7.2007 24.8245 6.90785 24.8245ZM5.80365 14.4459C4.8355 14.6064 3.95152 15.094 3.29895 15.8276C2.64638 16.5611 2.26461 17.4962 2.21723 18.4771C2.26657 19.4565 2.64922 20.3896 3.30162 21.1213C3.95403 21.853 4.83692 22.3393 5.80365 22.4995V14.4459Z" fill="#12141D"/>
<path d="M21.0162 28.4233H17.3591C17.0662 28.4233 16.7854 28.3068 16.5783 28.0996C16.3712 27.8924 16.2549 27.6113 16.2549 27.3182C16.2549 27.0251 16.3712 26.7441 16.5783 26.5368C16.7854 26.3296 17.0662 26.2132 17.3591 26.2132H21.0162C21.5878 26.2132 22.1361 25.9859 22.5403 25.5814C22.9445 25.1769 23.1716 24.6282 23.1716 24.0561V23.5699C23.1716 23.2768 23.2879 22.9957 23.495 22.7885C23.7021 22.5813 23.9829 22.4648 24.2758 22.4648C24.5686 22.4648 24.8495 22.5813 25.0565 22.7885C25.2636 22.9957 25.38 23.2768 25.38 23.5699V24.0561C25.38 25.2144 24.9202 26.3252 24.1018 27.1442C23.2835 27.9632 22.1735 28.4233 21.0162 28.4233Z" fill="#12141D"/>
<path d="M15.4686 30.5006H13.2867C12.4855 30.5006 11.717 30.1821 11.1505 29.6151C10.5839 29.0481 10.2656 28.2791 10.2656 27.4772V27.3534C10.268 26.5531 10.5873 25.7864 11.1536 25.2213C11.7199 24.6562 12.487 24.3389 13.2867 24.3389H15.4686C16.2675 24.3389 17.0337 24.6565 17.5986 25.2218C18.1635 25.7872 18.4808 26.5539 18.4808 27.3534V27.4772C18.4808 28.2775 18.1638 29.0452 17.5991 29.612C17.0345 30.1787 16.2683 30.4983 15.4686 30.5006ZM13.3044 26.549C13.0904 26.549 12.885 26.6334 12.7328 26.784C12.5807 26.9347 12.494 27.1393 12.4917 27.3534V27.4772C12.4917 27.6929 12.5773 27.8998 12.7297 28.0523C12.8821 28.2048 13.0888 28.2905 13.3044 28.2905H15.4686C15.6826 28.2882 15.887 28.2015 16.0376 28.0492C16.1881 27.8969 16.2725 27.6914 16.2725 27.4772V27.3534C16.2725 27.1401 16.1878 26.9355 16.037 26.7846C15.8863 26.6337 15.6818 26.549 15.4686 26.549H13.3044Z" fill="#12141D"/>
</svg>
