<svg width="30" height="30" viewBox="0 0 30 30" fill="none" xmlns="http://www.w3.org/2000/svg">
<path d="M14.9884 0C12.024 0 9.12615 0.879735 6.66131 2.52796C4.19648 4.17618 2.27537 6.51886 1.14093 9.25975C0.00649424 12.0006 -0.290327 15.0166 0.288005 17.9263C0.866337 20.8361 2.29385 23.5088 4.39002 25.6066C6.48619 27.7044 9.15687 29.133 12.0643 29.7118C14.9718 30.2905 17.9855 29.9935 20.7243 28.8582C23.463 27.7229 25.8039 25.8003 27.4509 23.3335C29.0978 20.8668 29.9769 17.9667 29.9769 15C29.9769 11.0217 28.3977 7.20644 25.5869 4.3934C22.776 1.58035 18.9636 0 14.9884 0ZM24.7844 23.2929L24.0779 22.575C23.8763 22.3732 23.6028 22.2599 23.3177 22.2599C23.0326 22.2599 22.7592 22.3732 22.5576 22.575C22.356 22.7767 22.2427 23.0504 22.2427 23.3357C22.2427 23.621 22.356 23.8947 22.5576 24.0964L23.2749 24.8036C21.2498 26.5547 18.7251 27.623 16.059 27.8571V26.7857C16.059 26.5015 15.9462 26.229 15.7455 26.0281C15.5447 25.8272 15.2724 25.7143 14.9884 25.7143C14.7045 25.7143 14.4322 25.8272 14.2314 26.0281C14.0306 26.229 13.9178 26.5015 13.9178 26.7857V27.8571C11.2579 27.6382 8.7339 26.5888 6.70198 24.8571L7.41928 24.15C7.62088 23.9482 7.73414 23.6746 7.73414 23.3893C7.73414 23.104 7.62088 22.8303 7.41928 22.6286C7.21768 22.4268 6.94426 22.3135 6.65915 22.3135C6.37405 22.3135 6.10062 22.4268 5.89903 22.6286L5.19243 23.3464C3.45171 21.2984 2.40249 18.7521 2.19474 16.0714H3.21181C3.49576 16.0714 3.76807 15.9585 3.96884 15.7576C4.16962 15.5567 4.28242 15.2842 4.28242 15C4.28242 14.7158 4.16962 14.4433 3.96884 14.2424C3.76807 14.0415 3.49576 13.9286 3.21181 13.9286H2.14121C2.35997 11.2666 3.40853 8.74064 5.1389 6.70714L5.8455 7.425C5.94553 7.5243 6.06417 7.60286 6.19461 7.65618C6.32505 7.7095 6.46472 7.73653 6.60562 7.73571C6.74652 7.73653 6.88619 7.7095 7.01663 7.65618C7.14707 7.60286 7.26571 7.5243 7.36575 7.425C7.4661 7.3254 7.54574 7.20689 7.6001 7.07633C7.65445 6.94577 7.68243 6.80573 7.68243 6.66428C7.68243 6.52284 7.65445 6.3828 7.6001 6.25224C7.54574 6.12167 7.4661 6.00317 7.36575 5.90357L6.64845 5.19643C8.69489 3.45437 11.2392 2.40434 13.9178 2.19643V3.21428C13.9178 3.49845 14.0306 3.77097 14.2314 3.9719C14.4322 4.17283 14.7045 4.28571 14.9884 4.28571C15.2724 4.28571 15.5447 4.17283 15.7455 3.9719C15.9462 3.77097 16.059 3.49845 16.059 3.21428V2.14286C18.7189 2.36178 21.243 3.41115 23.2749 5.14286L22.5576 5.85C22.4573 5.9496 22.3776 6.0681 22.3233 6.19867C22.2689 6.32923 22.2409 6.46927 22.2409 6.61071C22.2409 6.75215 22.2689 6.8922 22.3233 7.02276C22.3776 7.15332 22.4573 7.27182 22.5576 7.37143C22.6576 7.47073 22.7763 7.54929 22.9067 7.60261C23.0372 7.65593 23.1768 7.68296 23.3177 7.68214C23.4586 7.68296 23.5983 7.65593 23.7287 7.60261C23.8592 7.54929 23.9778 7.47073 24.0779 7.37143L24.7844 6.65357C26.5445 8.69472 27.6128 11.2417 27.8357 13.9286H26.7651C26.4811 13.9286 26.2088 14.0415 26.008 14.2424C25.8073 14.4433 25.6945 14.7158 25.6945 15C25.6945 15.2842 25.8073 15.5567 26.008 15.7576C26.2088 15.9585 26.4811 16.0714 26.7651 16.0714H27.8357C27.6018 18.7395 26.5342 21.2662 24.7844 23.2929Z" fill="#12141D"/>
<path d="M19.7537 16.1893L16.0601 14.3357V8.57143C16.0601 8.28727 15.9474 8.01475 15.7466 7.81381C15.5458 7.61288 15.2735 7.5 14.9895 7.5C14.7056 7.5 14.4333 7.61288 14.2325 7.81381C14.0317 8.01475 13.9189 8.28727 13.9189 8.57143V15C13.9195 15.1979 13.9749 15.3917 14.0788 15.56C14.1827 15.7283 14.3312 15.8645 14.5078 15.9536L18.7902 18.0964C18.9383 18.1758 19.104 18.2163 19.272 18.2143C19.4697 18.2137 19.6633 18.1583 19.8315 18.0543C19.9997 17.9503 20.1358 17.8017 20.2248 17.625C20.3518 17.372 20.3735 17.0789 20.2852 16.8099C20.197 16.5409 20.0059 16.3177 19.7537 16.1893Z" fill="#12141D"/>
</svg>
